<svg id="Laag_1" data-name="Laag 1" xmlns="http://www.w3.org/2000/svg" xmlns:xlink="http://www.w3.org/1999/xlink" viewBox="0 0 500 500"><defs><style>.cls-1{fill:none;}.cls-2{fill:#2062af;}.cls-3{fill:#3c9cd7;}.cls-4{fill:#fff;}.cls-5{clip-path:url(#clip-path);}.cls-6{fill:#d1d3d4;}.cls-7{clip-path:url(#clip-path-2);}.cls-8{clip-path:url(#clip-path-3);}.cls-9{fill:#e8e7e5;}.cls-10{fill:#e9e8e6;}.cls-11{fill:#eae9e7;}.cls-12{fill:#ebeae8;}.cls-13{fill:#ecebe9;}.cls-14{fill:#edecea;}.cls-15{fill:#eeedeb;}.cls-16{fill:#eeeeec;}.cls-17{fill:#efefed;}.cls-18{fill:#f0f0ee;}.cls-19{fill:#f1f1ef;}.cls-20{fill:#f2f2f0;}.cls-21{fill:#f3f3f1;}.cls-22{fill:#f4f3f3;}.cls-23{fill:#f5f4f4;}.cls-24{fill:#f6f5f5;}.cls-25{fill:#f7f6f6;}.cls-26{fill:#f8f7f7;}.cls-27{fill:#f9f8f8;}.cls-28{fill:#f9f9f9;}.cls-29{fill:#fafafa;}.cls-30{fill:#fbfbfb;}.cls-31{fill:#fcfcfc;}.cls-32{fill:#fdfdfd;}.cls-33{fill:#fefefe;}.cls-34{opacity:0.05;isolation:isolate;}.cls-35{clip-path:url(#clip-path-4);}</style><clipPath id="clip-path"><path class="cls-1" d="M166,259.44,168.77,294l81.12-34.68V224.49Z"/></clipPath><clipPath id="clip-path-2"><path class="cls-1" d="M339.76,187.07l-89.87,37.42v34.86l86.29-36.89Z"/></clipPath><clipPath id="clip-path-3"><path class="cls-1" d="M166.12,259.44,168.9,294l124.47.4-2.78,46.13-41,11.53-39.37-9.94-2.39-28.63H171.29l4.77,55.27,74,21.87,73.56-21.47,9.55-109.75Z"/></clipPath><clipPath id="clip-path-4"><path class="cls-1" d="M158.43,187.07H339.76l-3.58,35.39H162.81l-4.38-35.39Z"/></clipPath></defs><path class="cls-1" d="M18.24,18.24H481.76V481.76H18.24Z"/><path class="cls-2" d="M367.22,420.54,250,452.11,132.77,420.54,105.72,127.48H394.28Z"/><path class="cls-3" d="M250,151.22V426.93l.26.08,94.87-25.55L367,151.22Z"/><path d="M183.47,84.42V67h25.45V47.89H164.38v54h44.54V84.42ZM254.7,67h17.79V47.89H228V67c6,6,9.07,8.81,17.68,17.43-5,0-17.68,0-17.68,0v17.42h44.54V84.42L254.7,67Zm63.13,0h17.79V47.89H291.08V67c6,6,9.06,8.81,17.68,17.43-5,0-17.68,0-17.68,0v17.42h44.54V84.42L317.83,67Z"/><path class="cls-4" d="M249.89,224.49,166,259.44,168.77,294l81.12-34.68,86.29-36.89,3.58-35.39-89.87,37.42Z"/><g class="cls-5"><rect class="cls-6" x="165.99" y="267.12" width="83.9" height="26.91"/><rect class="cls-6" x="165.99" y="224.49" width="83.9" height="42.63"/></g><g class="cls-7"><rect class="cls-6" x="249.89" y="231.38" width="89.87" height="27.97"/><rect class="cls-6" x="249.89" y="187.07" width="89.87" height="44.31"/></g><g class="cls-8"><rect class="cls-9" x="166.12" y="259.44" width="6.42" height="131.22"/><rect class="cls-10" x="172.54" y="259.44" width="6.42" height="131.22"/><rect class="cls-11" x="178.97" y="259.44" width="6.42" height="131.22"/><rect class="cls-12" x="185.39" y="259.44" width="6.42" height="131.22"/><rect class="cls-13" x="191.81" y="259.44" width="6.42" height="131.22"/><rect class="cls-14" x="198.24" y="259.44" width="6.42" height="131.22"/><rect class="cls-15" x="204.66" y="259.44" width="6.42" height="131.22"/><rect class="cls-16" x="211.09" y="259.44" width="6.42" height="131.22"/><rect class="cls-17" x="217.51" y="259.44" width="6.42" height="131.22"/><rect class="cls-18" x="223.93" y="259.44" width="6.42" height="131.22"/><rect class="cls-19" x="230.36" y="259.44" width="6.42" height="131.22"/><rect class="cls-20" x="236.78" y="259.44" width="6.42" height="131.22"/><rect class="cls-21" x="243.2" y="259.44" width="6.42" height="131.22"/><rect class="cls-22" x="249.63" y="259.44" width="6.42" height="131.22"/><rect class="cls-23" x="256.05" y="259.44" width="6.42" height="131.22"/><rect class="cls-24" x="262.48" y="259.44" width="6.42" height="131.22"/><rect class="cls-25" x="268.9" y="259.44" width="6.42" height="131.22"/><rect class="cls-26" x="275.32" y="259.44" width="6.42" height="131.22"/><rect class="cls-27" x="281.75" y="259.44" width="6.42" height="131.22"/><rect class="cls-28" x="288.17" y="259.44" width="6.42" height="131.22"/><rect class="cls-29" x="294.59" y="259.44" width="6.42" height="131.22"/><rect class="cls-30" x="301.02" y="259.44" width="6.42" height="131.22"/><rect class="cls-31" x="307.44" y="259.44" width="6.42" height="131.22"/><rect class="cls-32" x="313.87" y="259.44" width="6.42" height="131.22"/><rect class="cls-33" x="320.29" y="259.44" width="6.42" height="131.22"/><rect class="cls-4" x="326.71" y="259.44" width="6.42" height="131.22"/></g><g class="cls-34"><path d="M249.89,259.44H166L168.77,294l81.12.26V259.44Zm0,92.54-.39.11-39.37-9.94-2.39-28.63H171.16l4.77,55.27,74,21.87Z"/></g><g class="cls-35"><rect class="cls-9" x="158.43" y="187.07" width="6.97" height="35.39"/><rect class="cls-10" x="165.41" y="187.07" width="6.97" height="35.39"/><rect class="cls-11" x="172.38" y="187.07" width="6.97" height="35.39"/><rect class="cls-12" x="179.36" y="187.07" width="6.97" height="35.39"/><rect class="cls-13" x="186.33" y="187.07" width="6.97" height="35.39"/><rect class="cls-14" x="193.3" y="187.07" width="6.97" height="35.39"/><rect class="cls-15" x="200.28" y="187.07" width="6.97" height="35.39"/><rect class="cls-16" x="207.25" y="187.07" width="6.97" height="35.39"/><rect class="cls-17" x="214.23" y="187.07" width="6.97" height="35.39"/><rect class="cls-18" x="221.2" y="187.07" width="6.97" height="35.39"/><rect class="cls-19" x="228.18" y="187.07" width="6.97" height="35.39"/><rect class="cls-20" x="235.15" y="187.07" width="6.97" height="35.39"/><rect class="cls-21" x="242.12" y="187.07" width="6.97" height="35.39"/><rect class="cls-22" x="249.1" y="187.07" width="6.97" height="35.39"/><rect class="cls-23" x="256.07" y="187.07" width="6.97" height="35.39"/><rect class="cls-24" x="263.05" y="187.07" width="6.97" height="35.39"/><rect class="cls-25" x="270.02" y="187.07" width="6.97" height="35.39"/><rect class="cls-26" x="276.99" y="187.07" width="6.97" height="35.39"/><rect class="cls-27" x="283.97" y="187.07" width="6.97" height="35.39"/><rect class="cls-28" x="290.94" y="187.07" width="6.97" height="35.39"/><rect class="cls-29" x="297.92" y="187.07" width="6.97" height="35.39"/><rect class="cls-30" x="304.89" y="187.07" width="6.97" height="35.39"/><rect class="cls-31" x="311.87" y="187.07" width="6.97" height="35.39"/><rect class="cls-32" x="318.84" y="187.07" width="6.97" height="35.39"/><rect class="cls-33" x="325.81" y="187.07" width="6.97" height="35.39"/><rect class="cls-4" x="332.79" y="187.07" width="6.97" height="35.39"/></g><g class="cls-34"><path d="M249.89,187.07H158.43l4.38,35.39h87.08V187.07Z"/></g></svg>