<svg id="Laag_1" data-name="Laag 1" xmlns="http://www.w3.org/2000/svg" viewBox="0 0 500 500"><defs><style>.cls-1{fill:#e44d26;}.cls-2{fill:#f16529;}.cls-3{fill:#ebebeb;}.cls-4{fill:#fff;}</style></defs><path class="cls-1" d="M128.88,425.43,101.93,123.15H398.07l-27,302.23L249.82,459Z"/><path class="cls-2" d="M250,433.3l98-27.17,23.06-258.27H250Z"/><path class="cls-3" d="M250,260H200.94l-3.39-38H250V184.94H157l.89,9.94L167,297.05h83Zm0,96.29-.16,0-41.29-11.15-2.64-29.56H168.69l5.2,58.21,75.94,21.08.17-.05Z"/><path d="M129.48,41h18.84V59.61h17.24V41H184.4V97.37H165.56V78.49H148.32V97.37H129.48Zm79.69,18.69H192.59V41h52V59.69H228V97.37H209.18V59.69ZM252.87,41h19.64L284.6,60.81,296.67,41h19.65V97.37H297.56V69.43l-13,20h-.32l-13-20V97.37H252.87V41Zm72.83,0h18.84V78.74H371V97.37H325.7Z"/><path class="cls-4" d="M249.87,260v37.08h45.65l-4.3,48.08-41.35,11.16v38.57l76-21.06.56-6.27,8.71-97.6.91-10H249.87Zm0-75V222h89.55l.74-8.33,1.69-18.8.89-9.94Z"/></svg>