<svg id="Laag_1" data-name="Laag 1" xmlns="http://www.w3.org/2000/svg" viewBox="0 0 500 500"><defs><style>.cls-1{fill:#f7df1e;}</style></defs><path class="cls-1" d="M39.53,39.53H460.47V460.47H39.53Z"/><path d="M150.21,391.3l32.21-19.5c6.22,11,11.87,20.35,25.43,20.35,13,0,21.2-5.09,21.2-24.87V232.78H268.6V367.84c0,41-24,59.63-59.05,59.63-31.65,0-50-16.39-59.34-36.17m139.88-4.24,32.21-18.65c8.48,13.85,19.5,24,39,24,16.4,0,26.85-8.19,26.85-19.5,0-13.56-10.74-18.36-28.82-26.27l-9.89-4.25C320.89,330.27,302,315,302,282.8c0-29.67,22.6-52.28,57.92-52.28,25.15,0,43.24,8.76,56.23,31.65L385.31,282C378.53,269.8,371.19,265,359.88,265,348.3,265,341,272.34,341,282c0,11.87,7.35,16.67,24.3,24l9.89,4.24c33.62,14.41,52.56,29.1,52.56,62.16,0,35.61-28,55.1-65.56,55.1-36.73,0-60.47-17.52-72.05-40.41"/></svg>