<svg id="Laag_1" data-name="Laag 1" xmlns="http://www.w3.org/2000/svg" viewBox="0 0 500 500"><defs><style>.cls-1{fill:#8e714e;}.cls-1,.cls-2,.cls-3,.cls-4,.cls-5,.cls-6{fill-rule:evenodd;}.cls-2{fill:#442d22;}.cls-3{fill:#fff;}.cls-4{fill:#a6a385;}.cls-5{fill:#499d4a;}.cls-6{fill:#58aa50;}</style></defs><path class="cls-1" d="M441.11,239.11c-.4.08-.8.95-.8,1.43-.08,3.2-.16,11.65-.16,17.4a.59.59,0,0,0,.48.48c1.2.08,4.07.16,6.54.16a17.07,17.07,0,0,0,6.55-1c2.87-1.44,4.23-4.55,4.23-8,0-7.74-5.43-10.69-13.49-10.69a12.75,12.75,0,0,0-3.35.16Zm20.59,35.67c0-7.9-5.83-12.29-16.36-12.29a46.18,46.18,0,0,0-4.63.08c-.24.08-.56.24-.56.48,0,5.66-.08,14.68.16,18.19.16,1.52,1.28,3.67,2.63,4.31,1.44.8,4.71,1,6.95,1,6.3,0,11.81-3.51,11.81-11.73Zm-36.87-40.06c.8,0,3.19.24,9.34.24,5.82,0,10.45-.16,16.11-.16,7,0,16.52,2.47,16.52,12.85,0,5.1-3.59,9.17-8.3,11.17-.23.08-.23.24,0,.32,6.71,1.67,12.61,5.82,12.61,13.64,0,7.66-4.79,12.53-11.73,15.56-4.23,1.84-9.49,2.48-14.84,2.48-4.07,0-15-.48-21.07-.32-.63-.24.56-3.12,1.12-3.59a14.85,14.85,0,0,0,4.07-.64c2.16-.56,2.39-1.2,2.71-4.47.16-2.79.16-12.69.16-19.71,0-9.66.08-16.2,0-19.39-.08-2.47-.95-3.27-2.71-3.75-1.36-.24-3.59-.56-5.43-.8-.4-.4,1-3.11,1.44-3.43Zm-46,49.63c1.91,1.52,5.66,2.16,9,2.16,4.31,0,8.62-.8,12.77-4.55s7.18-9.74,7.18-19.15c0-9-3.43-16.36-10.45-20.67-4-2.47-9.1-3.51-15-3.51a11.92,11.92,0,0,0-4.47.56,2.33,2.33,0,0,0-.8,1.27c-.16,1.6-.16,13.89-.16,21.07,0,7.42,0,17.8.16,19a4.94,4.94,0,0,0,1.76,3.83Zm-18.12-49.63c1.52,0,7.34.24,10.14.24,5,0,8.62-.24,18.11-.24,8,0,14.68,2.15,19.47,6.22,5.83,5,8.86,12,8.86,20.43,0,12.05-5.51,19-11,23s-12.69,6.47-22.9,6.47c-5.43,0-14.77-.16-22.51-.24h-.08c-.4-.72.64-3.51,1.28-3.59a12.69,12.69,0,0,0,3.67-.72c1.68-.64,2-1.52,2.23-4.47.24-5.51.16-12.13.16-19.63,0-5.35.08-15.8-.08-19.15-.24-2.8-1.43-3.51-3.83-4-1.19-.24-2.79-.56-5-.8-.32-.56,1.11-3,1.51-3.51Z"/><path class="cls-2" d="M264.12,287.46a16,16,0,0,1-5.19-1.35,2.44,2.44,0,0,1-.64-1.28c-.16-2.79-.16-10.77-.16-16.12,0-4.31-.71-8.06-2.55-10.69a10.9,10.9,0,0,0-9.26-4.79c-3.51,0-8.22,2.4-12.13,5.75-.08.08-.71.64-.63-.24s.16-2.64.24-3.83a2.08,2.08,0,0,0-.56-1.68c-2.56,1.28-9.74,3-12.37,3.19-1.92.4-2.4,2.24-.4,2.88h.08a17.55,17.55,0,0,1,4.71,2.07,2.51,2.51,0,0,1,.71,2.24c.08,6,.08,15.16-.15,20.18-.08,2-.64,2.72-2.08,3l.16-.08a31.44,31.44,0,0,1-3.35.63c-.48.48-.48,3,0,3.6.88,0,5.5-.24,9.34-.24,5.26,0,8,.24,9.33.24a5.21,5.21,0,0,0,.4-3.6,14.37,14.37,0,0,1-3.67-.55c-1.44-.32-1.84-1-1.92-2.72-.15-4.23-.15-13.16-.15-19.23a3.85,3.85,0,0,1,1-2.95,12.05,12.05,0,0,1,7.42-2.71,8.24,8.24,0,0,1,5.51,1.83,7.88,7.88,0,0,1,2.55,5c.4,3.43.24,10.21.24,16.12,0,3.19-.24,4-1.43,4.39a14.91,14.91,0,0,1-3.67.71c-.56.56-.4,3,0,3.6,2.31,0,5-.24,9-.24,5,0,8.14.24,9.42.24a5.57,5.57,0,0,0,.24-3.44ZM286.22,257c-4.23,0-6.86,3.27-6.86,8.38s2.31,11.17,8.86,11.17a6.23,6.23,0,0,0,4.15-1.59c1.51-1.44,2.55-4.31,2.55-7.35,0-6.62-3.27-10.61-8.7-10.61Zm-.56,35.27a6.87,6.87,0,0,0-3.43.88c-3.35,2.15-4.87,4.23-4.87,6.7a7.06,7.06,0,0,0,2.8,5.75c2.31,2,5.5,2.95,9.57,2.95,8.14,0,11.73-4.39,11.73-8.7,0-3-1.51-5-4.62-6.14-2.24-1-6.31-1.44-11.18-1.44Zm.56,20.75c-4.87,0-8.38-1-11.41-3.35a10.54,10.54,0,0,1-4.23-7.9,6.09,6.09,0,0,1,1.6-4,42.57,42.57,0,0,1,7.34-5.91c.16-.08.24-.16.24-.32a.5.5,0,0,0-.32-.39c-3.75-1.44-4.87-3.76-5.19-5V286c-.08-.48-.24-1,.48-1.44.56-.4,1.36-.88,2.24-1.43a33.53,33.53,0,0,0,3.67-2.4.59.59,0,0,0,.16-.48.53.53,0,0,0-.32-.4c-5.59-1.83-8.38-6-8.38-12.21a12.11,12.11,0,0,1,5.1-10,23.57,23.57,0,0,1,11.5-3.91h.24a24.38,24.38,0,0,1,8.77,1.92,15,15,0,0,0,5.19.79c3.11,0,4.47-.95,5.58-2.07a3.93,3.93,0,0,1,.32,1.59,6,6,0,0,1-1,3.68,4.57,4.57,0,0,1-3.51,1.51h-.4a17.83,17.83,0,0,1-2.08-.32l-.32.16c-.08.16,0,.32.08.56l.08.16a29.32,29.32,0,0,1,.48,3.43c0,6.55-2.63,9.42-5.42,11.57a18.37,18.37,0,0,1-9.34,3.59,10,10,0,0,0-1.12.08c-.4,0-1,.08-1,.08h-.08c-.63.16-2.23,1-2.23,2.32,0,1.19.72,2.63,4.15,2.87.72.08,1.44.08,2.23.16,4.55.32,10.22.72,12.85,1.6a8.93,8.93,0,0,1,6,8.53c0,5.91-4.23,11.41-11.25,14.85A25.83,25.83,0,0,1,286.22,313Zm45.49-55.62a7.38,7.38,0,0,0-4.31,1.2c-3.11,1.91-4.71,5.74-4.71,11.33,0,10.45,5.27,17.79,12.77,17.79a8.08,8.08,0,0,0,5.5-1.91c2.32-1.92,3.51-5.75,3.51-11.09,0-10.38-5.18-17.32-12.76-17.32Zm1.43,34.15c-13.56,0-18.43-10-18.43-19.31a17.27,17.27,0,0,1,7.9-15.16,24.05,24.05,0,0,1,12.21-3.59c10.37,0,17.63,7.42,17.63,18.12,0,7.26-2.87,13-8.38,16.51a22.06,22.06,0,0,1-10.93,3.43Zm-142.2-34.15a7.42,7.42,0,0,0-4.31,1.2c-3.11,1.91-4.7,5.74-4.7,11.33,0,10.45,5.26,17.79,12.76,17.79a8.11,8.11,0,0,0,5.51-1.91c2.31-1.92,3.51-5.75,3.51-11.09,0-10.38-5.11-17.32-12.77-17.32Zm1.44,34.15c-13.56,0-18.43-10-18.43-19.31a17.27,17.27,0,0,1,7.9-15.16,24.05,24.05,0,0,1,12.21-3.59c10.37,0,17.63,7.42,17.63,18.12,0,7.26-2.87,13-8.38,16.51a21.55,21.55,0,0,1-10.93,3.43Zm-91.21-.79a3.43,3.43,0,0,1-.24-1.84,2.71,2.71,0,0,1,.24-1.2,31,31,0,0,0,3.51-.71c1.6-.4,2.24-1.28,2.32-3.28.24-4.78.24-13.88.16-20.18v-.16a2.42,2.42,0,0,0-.88-2.24,17.92,17.92,0,0,0-4.79-2.07c-.72-.24-1.2-.64-1.12-1.12s.48-1,1.52-1.2a58.27,58.27,0,0,0,12.21-3.11,2,2,0,0,1,.4,1.28l-.08.87c-.08.88-.16,1.92-.16,3a.62.62,0,0,0,.64.56,1.14,1.14,0,0,0,.48-.16c5.1-4,9.73-5.43,12.12-5.43,3.92,0,6.95,1.84,9.26,5.67a.6.6,0,0,0,.56.32.57.57,0,0,0,.48-.24c4.71-3.6,9.42-5.75,12.53-5.75,7.42,0,11.81,5.51,11.81,14.84,0,2.64,0,6.07-.08,9.18,0,2.79-.08,5.35-.08,7.18a2.52,2.52,0,0,0,1.43,1.92,17.52,17.52,0,0,0,4.63,1.11h.08a6.42,6.42,0,0,1-.48,3,19.43,19.43,0,0,1-2-.08q-3-.16-6.07-.16c-4.94,0-7.5.08-10,.24a7.76,7.76,0,0,1,0-3,26.9,26.9,0,0,0,3-.71c1.6-.48,2-1.2,2.08-3.28,0-1.51.32-14.44-.16-17.55a7.87,7.87,0,0,0-8.14-6.94,14.08,14.08,0,0,0-8.14,3.11,1.42,1.42,0,0,0-.32.8v.08a36.69,36.69,0,0,1,.32,6.54v5.19c0,3.59-.08,6.94,0,9.49a2.34,2.34,0,0,0,1.91,2.48c.48.07.8.16,1.2.23l2.55.56a4.32,4.32,0,0,1-.08,2.24,1.53,1.53,0,0,1-.32.8c-2.71-.08-5.5-.16-9.57-.16-1.2,0-3.27.08-5,.08-1.44,0-2.79.08-3.59.08a4.24,4.24,0,0,1-.24-1.6,2.49,2.49,0,0,1,.32-1.44,5.4,5.4,0,0,1,1.12-.16c1-.16,1.75-.32,2.55-.47,1.36-.4,1.84-1.12,1.92-2.88.24-4,.48-15.4-.08-18.27-1-4.63-3.59-6.94-7.82-6.94a14.59,14.59,0,0,0-8.14,3.11,2.58,2.58,0,0,0-.72,1.83v4.71c0,5.75,0,12.93.08,16a2.46,2.46,0,0,0,2.23,2.47,16.55,16.55,0,0,0,1.84.32l1.43.24a6.71,6.71,0,0,1-.23,3c-.8,0-1.76-.08-2.88-.08-1.67-.08-3.83-.16-6.22-.16-2.79,0-4.79.08-6.39.16a19.18,19.18,0,0,0-3-.16Z"/><path class="cls-3" d="M59.2,309.89l-3.27-1.12s.4-16.68-5.59-17.87c-4-4.63.64-196.31,15-.64,0,0-4.94,2.47-5.82,6.7s-.32,12.93-.32,12.93Z"/><path class="cls-4" d="M59.2,309.89l-3.27-1.12s.4-16.68-5.59-17.87c-4-4.63.64-196.31,15-.64,0,0-4.94,2.47-5.82,6.7s-.32,12.93-.32,12.93Z"/><path class="cls-3" d="M61,293.77s28.65-18.83,22-58c-6.46-28.49-21.71-37.83-23.38-41.42a39.74,39.74,0,0,1-3.59-7l1.19,79.24c0,.08-2.47,24.26,3.84,27.21"/><path class="cls-5" d="M61,293.77s28.65-18.83,22-58c-6.46-28.49-21.71-37.83-23.38-41.42a39.74,39.74,0,0,1-3.59-7l1.19,79.24c0,.08-2.47,24.26,3.84,27.21"/><path class="cls-3" d="M54.25,294.81S27.36,276.45,29,244.14s20.5-48.2,24.17-51.07c2.4-2.56,2.48-3.52,2.64-6.07,1.67,3.59,1.35,53.7,1.59,59.61C58.08,269.35,56.09,290.5,54.25,294.81Z"/><path class="cls-6" d="M54.25,294.81S27.36,276.45,29,244.14s20.5-48.2,24.17-51.07c2.4-2.56,2.48-3.52,2.64-6.07,1.67,3.59,1.35,53.7,1.59,59.61C58.08,269.35,56.09,290.5,54.25,294.81Z"/></svg>