<svg id="Laag_1" data-name="Laag 1" xmlns="http://www.w3.org/2000/svg" viewBox="0 0 500 500"><defs><style>.cls-1{fill:#5d87a1;}.cls-2{fill:#f8981d;}</style></defs><path class="cls-1" d="M143.57,364.44H127.75q-.84-40.05-4.62-75.33H123L98.9,364.44h-12L62.92,289.11h-.14Q60.11,323,59.42,364.44H45q1.39-50.4,7-94.52H71.61l22.82,69.45h.14l23-69.45h18.76q6.17,51.68,7.28,94.52m68.61-69.74q-9.66,52.44-25.49,76.21-12.31,18.3-27,18.31a26.66,26.66,0,0,1-9.66-2.35v-8.43a46.43,46.43,0,0,0,6.58.42q6.87,0,11.06-3.78,5-4.62,5-10.36,0-3.93-3.92-16.1L151.41,294.7H167L179.41,335q4.2,13.74,3.5,19.19A263,263,0,0,0,197.2,294.7Z"/><path class="cls-2" d="M422.76,364.44H377.83V269.92h15.11v82.89h29.82Zm-56.7,2.29-17.37-8.58a32.57,32.57,0,0,0,4.34-4.22q11.07-13,11.07-38.5,0-46.9-36.83-46.92-18,0-28.14,11.91-11.07,13-11.07,38.37,0,24.93,9.8,36.54,9,10.5,27,10.51a43.54,43.54,0,0,0,12.37-1.66l22.62,13.17Zm-56.29-21.2Q304,336.29,304,315.85q0-35.7,21.71-35.71,11.34,0,16.65,8.54,5.75,9.24,5.75,29.4,0,36-21.7,36-11.35,0-16.67-8.55m-28.29-7.29A25.09,25.09,0,0,1,272.66,358q-8.82,7.68-23.65,7.7-13.87,0-26.89-8.83l4.07-8.12q11.19,5.61,20.29,5.6,8.55,0,13.37-3.77A12.82,12.82,0,0,0,265,340.08c0-5.62-3.91-10.42-11.1-14.44C247.28,322,234,314.4,234,314.4c-7.18-5.24-10.78-10.85-10.78-20.11q0-11.49,8.05-18.55t20.8-7.08a43.06,43.06,0,0,1,23.93,7l-3.64,8.11a46.31,46.31,0,0,0-18.2-3.91c-4.84,0-8.58,1.16-11.19,3.5a11.72,11.72,0,0,0-4.24,9c0,5.59,4,10.45,11.38,14.55,6.72,3.64,20.29,11.38,20.29,11.38,7.37,5.22,11.05,10.79,11.05,20"/><path class="cls-1" d="M441.74,238.26c-9.14-.23-16.22.69-22.16,3.2-1.71.69-4.44.69-4.68,2.86.93.91,1,2.39,1.84,3.66a26.75,26.75,0,0,0,5.94,7c2.39,1.83,4.79,3.65,7.31,5.24,4.45,2.75,9.48,4.35,13.81,7.09,2.52,1.59,5,3.65,7.55,5.37,1.24.91,2,2.4,3.65,3v-.35c-.81-1-1-2.51-1.83-3.66l-3.43-3.31a54.25,54.25,0,0,0-11.87-11.52c-3.66-2.52-11.66-5.95-13.14-10.16l-.23-.23a46,46,0,0,0,7.88-1.85c3.89-1,7.43-.79,11.42-1.81,1.83-.46,3.65-1,5.49-1.6v-1c-2.07-2.06-3.54-4.79-5.71-6.74a152.71,152.71,0,0,0-18.85-14c-3.54-2.29-8.1-3.77-11.88-5.71-1.36-.69-3.65-1-4.45-2.18-2-2.51-3.21-5.82-4.69-8.79-3.3-6.28-6.51-13.24-9.36-19.88-2.06-4.45-3.31-8.89-5.83-13C376.76,150.33,364,138.57,344.33,127c-4.22-2.4-9.25-3.43-14.61-4.69l-8.57-.45c-1.83-.8-3.66-3-5.25-4-6.52-4.11-23.3-13-28.1-1.26-3.08,7.43,4.57,14.74,7.2,18.51,1.94,2.62,4.46,5.59,5.82,8.57.8,1.94,1,4,1.83,6,1.83,5,3.54,10.62,5.94,15.3a53.43,53.43,0,0,0,4.22,7.07c.92,1.27,2.51,1.83,2.86,3.89-1.59,2.28-1.72,5.71-2.63,8.56-4.11,12.91-2.5,28.89,3.32,38.38,1.82,2.85,6.17,9.14,12,6.73,5.15-2.06,4-8.57,5.49-14.27.34-1.38.12-2.29.8-3.19v.22c1.6,3.2,3.2,6.28,4.68,9.48,3.54,5.59,9.71,11.42,14.85,15.29,2.74,2.07,4.9,5.6,8.33,6.86v-.34h-.23a12.75,12.75,0,0,0-2.62-2.28,54.18,54.18,0,0,1-5.93-6.85,146.91,146.91,0,0,1-12.79-20.79c-1.84-3.54-3.43-7.42-4.91-11-.69-1.37-.69-3.43-1.84-4.12-1.71,2.51-4.22,4.69-5.47,7.76-2.17,4.92-2.4,11-3.21,17.26L325,224c-3.64-.91-4.9-4.67-6.28-7.87-3.42-8.11-4-21.14-1-30.5.79-2.39,4.23-9.93,2.86-12.21-.69-2.18-3-3.43-4.23-5.15a46.42,46.42,0,0,1-4.11-7.31c-2.74-6.39-4.12-13.47-7.07-19.86-1.38-3-3.77-6.06-5.71-8.8-2.18-3.08-4.57-5.25-6.29-8.91-.57-1.25-1.37-3.31-.45-4.67a1.81,1.81,0,0,1,1.6-1.49c1.47-1.25,5.7.34,7.19,1a58.63,58.63,0,0,1,11.3,5.71c1.6,1.15,3.32,3.32,5.37,3.89h2.4c3.65.8,7.76.22,11.19,1.25A73.82,73.82,0,0,1,348.23,137,101.27,101.27,0,0,1,383.85,176c1.37,2.62,1.95,5,3.2,7.76,2.4,5.6,5.38,11.31,7.76,16.8s4.69,10.84,8.12,15.3c1.71,2.39,8.57,3.65,11.65,4.91,2.28,1,5.82,1.93,7.88,3.19,3.88,2.39,7.75,5.14,11.41,7.77,1.82,1.37,7.53,4.23,7.87,6.51M325.25,139a17.89,17.89,0,0,0-4.67.57v.23h.22c.92,1.83,2.52,3.09,3.66,4.69.92,1.83,1.71,3.64,2.62,5.47l.22-.22c1.61-1.14,2.41-3,2.41-5.72a24.44,24.44,0,0,1-1.38-2.39c-.67-1.15-2.16-1.71-3.08-2.63"/><path class="cls-2" d="M452.62,364.43H455V352.85h-3.54l-2.9,7.9-3.15-7.9H442v11.58h2.23v-8.81h.13l3.29,8.81h1.71l3.28-8.81v8.81Zm-19.06,0h2.5v-9.62h3.28v-2h-9.2v2h3.41v9.62Z"/></svg>