<svg id="Laag_1" data-name="Laag 1" xmlns="http://www.w3.org/2000/svg" viewBox="0 0 500 500"><defs><style>.cls-1{fill:#8993be;}.cls-2{fill:#232531;fill-rule:evenodd;}</style></defs><ellipse class="cls-1" cx="250" cy="250" rx="230" ry="119.73"/><path class="cls-2" d="M84.59,320.89l25.21-127.6h58.28c25.21,1.57,37.81,14.17,37.81,36.23,0,37.81-29.93,59.86-56.71,58.29H120.82l-6.3,33.08Zm42.53-56.71L135,216.92h20.48c11,0,18.9,4.72,18.9,14.18-1.57,26.78-14.18,31.5-28.35,33.08ZM200,287.81l25.21-127.6h29.93l-6.3,33.08h28.35c25.21,1.57,34.66,14.17,31.51,29.93l-11,64.59H266.2l11-58.29c1.58-7.88,1.58-12.6-9.45-12.6H244.14L230,287.81Zm95.66,33.08,25.2-127.6h58.29c25.2,1.57,37.81,14.17,37.81,36.23,0,37.81-29.94,59.86-56.72,58.29H331.92l-6.3,33.08Zm42.53-56.71,7.88-47.26h20.48c11,0,18.9,4.72,18.9,14.18-1.58,26.78-14.18,31.5-28.36,33.08Z"/></svg>