<svg id="Laag_1" data-name="Laag 1" xmlns="http://www.w3.org/2000/svg" viewBox="0 0 500 500"><defs><style>.cls-1{fill:#53c1de;}</style></defs><path class="cls-1" d="M395,179.58h0q-7.19-2.46-14.48-4.56,1.2-4.92,2.23-9.88c11-53.23,3.8-96.11-20.68-110.23-23.48-13.54-61.87.58-100.65,34.32q-5.73,5-11.2,10.28-3.66-3.51-7.46-6.89C202.12,56.54,161.38,41.34,136.92,55.5c-23.45,13.57-30.39,53.89-20.52,104.33q1.47,7.5,3.32,14.91c-5.76,1.64-11.33,3.38-16.65,5.24C55.43,196.59,25,222.62,25,249.62c0,27.89,32.66,55.86,82.29,72.82q6,2.06,12.16,3.81-2,8-3.53,16.06c-9.41,49.57-2.06,88.93,21.33,102.42,24.16,13.93,64.71-.39,104.19-34.9q4.68-4.09,9.39-8.65,5.92,5.71,12.16,11.09c38.25,32.91,76,46.2,99.39,32.68,24.14-14,32-56.26,21.8-107.7q-1.17-5.89-2.7-12,4.27-1.26,8.37-2.61c51.59-17.1,85.15-44.73,85.15-73C475,222.52,443.59,196.31,395,179.58ZM274,103.74c33.23-28.92,64.28-40.33,78.42-32.17,15.07,8.69,20.93,43.73,11.47,89.69-.62,3-1.3,6-2,9a459.81,459.81,0,0,0-60.17-9.51,450,450,0,0,0-38-47.47Q268.75,108.36,274,103.74Zm-116.16,169Q164,284.48,170.63,296q6.78,11.73,14.13,23.11a409.4,409.4,0,0,1-41.48-6.66C147.26,299.59,152.15,286.25,157.87,272.69Zm0-45.21c-5.6-13.28-10.39-26.33-14.3-38.94,12.84-2.87,26.53-5.22,40.79-7q-7.16,11.17-13.79,22.68T157.85,227.48Zm10.22,22.61q8.88-18.5,19.14-36.28h0Q197.46,196,209,179.08c13.38-1,27.1-1.55,41-1.55s27.67.54,41.05,1.56q11.46,16.92,21.69,34.62t19.39,36.1q-9,18.56-19.33,36.43h0Q302.57,304,291.21,321.07c-13.35.95-27.15,1.45-41.21,1.45s-27.62-.44-40.74-1.29q-11.65-17-22-34.89T168.07,250.09Zm161.38,45.75q6.8-11.77,13.05-23.84a405.2,405.2,0,0,1,15.11,39.58,407.16,407.16,0,0,1-42,7.16Q322.77,307.43,329.45,295.84Zm12.87-68.35q-6.24-11.84-12.95-23.42h0q-6.6-11.38-13.68-22.5c14.36,1.81,28.11,4.22,41,7.17A410.78,410.78,0,0,1,342.32,227.49ZM250.22,127c8.86,9.61,17.74,20.34,26.48,32q-26.58-1.24-53.19,0C232.25,147.4,241.21,136.69,250.22,127ZM146.56,72.14C161.61,63.42,194.9,75.85,230,107c2.24,2,4.49,4.08,6.75,6.24a460.76,460.76,0,0,0-38.33,47.44,469.17,469.17,0,0,0-60,9.33q-1.73-6.9-3.1-13.87h0C126.81,112.92,132.42,80.32,146.56,72.14Zm-22,235.59q-5.6-1.61-11.11-3.47C91.56,296.76,73.44,287,61,276.37c-11.16-9.56-16.8-19.05-16.8-26.75,0-16.38,24.43-37.28,65.18-51.49q7.66-2.65,15.49-4.87a459.13,459.13,0,0,0,21.93,56.83A469.43,469.43,0,0,0,124.61,307.73Zm104.18,87.63c-17.46,15.26-35,26.09-50.37,31.53h0c-13.85,4.9-24.89,5-31.56,1.19-14.19-8.18-20.09-39.79-12-82.18q1.42-7.51,3.28-14.94a452,452,0,0,0,60.65,8.78,466.19,466.19,0,0,0,38.62,47.72Q233.18,391.53,228.79,395.36Zm22-21.73c-9.11-9.83-18.2-20.71-27.08-32.4q12.93.51,26.33.51c9.17,0,18.24-.21,27.16-.61A410.19,410.19,0,0,1,250.75,373.63Zm116.73,26.75c-2.68,14.44-8.07,24.07-14.73,27.93-14.18,8.21-44.51-2.46-77.22-30.6q-5.62-4.84-11.31-10.32a451.63,451.63,0,0,0,37.72-47.9,448.26,448.26,0,0,0,60.94-9.39q1.38,5.55,2.44,10.89C369.82,363.73,370.47,384.3,367.48,400.38Zm16.32-96h0c-2.46.82-5,1.6-7.56,2.37a450.48,450.48,0,0,0-22.78-57,452.25,452.25,0,0,0,21.9-56.18c4.6,1.34,9.07,2.74,13.37,4.22,41.65,14.34,67,35.53,67,51.86C455.78,267,428.34,289.6,383.8,304.36Z"/><path class="cls-1" d="M250,209.82A40.18,40.18,0,1,1,209.82,250,40.18,40.18,0,0,1,250,209.82"/></svg>