<svg id="Laag_1" data-name="Laag 1" xmlns="http://www.w3.org/2000/svg" viewBox="0 0 500 500"><defs><style>.cls-1{fill:#cf649a;}</style></defs><path class="cls-1" d="M400.2,273.16a85.78,85.78,0,0,0-37.73,8.78c-3.9-7.72-7.8-14.47-8.45-19.51-.73-5.86-1.63-9.43-.73-16.43s5-16.91,5-17.72-.9-4.31-9.27-4.39-15.61,1.63-16.43,3.82a93.35,93.35,0,0,0-3.49,12.44c-1.47,7.64-16.75,34.72-25.45,48.94-2.85-5.52-5.29-10.4-5.77-14.31-.73-5.85-1.63-9.43-.73-16.42s4.95-16.91,4.95-17.72-.89-4.31-9.26-4.39-15.61,1.62-16.43,3.82-1.7,7.4-3.49,12.44-22,50.24-27.32,62c-2.68,6-5,10.82-6.75,14.07s-.08.24-.24.57c-1.47,2.76-2.28,4.31-2.28,4.31v.08c-1.14,2-2.36,4-2.93,4-.4,0-1.22-5.45.17-12.93,3-15.69,10.32-40.16,10.24-41.05,0-.41,1.38-4.72-4.72-6.91-5.93-2.2-8,1.46-8.53,1.46s-.9,1.3-.9,1.3,6.59-27.56-12.6-27.56c-12,0-28.62,13.09-36.83,25-5.2,2.85-16.26,8.86-28,15.29-4.47,2.43-9.1,5-13.49,7.39l-.9-1c-23.25-24.8-66.26-42.36-64.47-75.7.65-12.11,4.88-44.06,82.6-82.76,63.66-31.71,114.64-23,123.5-3.66,12.6,27.64-27.23,79-93.41,86.42-25.21,2.85-38.46-6.91-41.79-10.57-3.5-3.82-4-4-5.29-3.25-2.11,1.14-.81,4.56,0,6.59,1.95,5.12,10.08,14.23,23.9,18.78,12.12,4,41.71,6.18,77.49-7.64,40.08-15.53,71.38-58.62,62.19-94.64-9.35-36.67-70.16-48.7-127.64-28.29-34.23,12.19-71.31,31.22-98,56.18-31.71,29.59-36.75,55.45-34.64,66.18,7.4,38.29,60.17,63.25,81.3,81.71-1,.57-2,1.13-2.92,1.62-10.57,5.21-50.82,26.26-60.9,48.54-11.38,25.2,1.79,43.34,10.57,45.77,27.16,7.57,55-6,70-28.37s13.17-51.38,6.26-64.64l-.24-.48,8.29-4.88c5.37-3.17,10.65-6.1,15.29-8.62-2.6,7.07-4.48,15.45-5.45,27.64-1.14,14.31,4.72,32.85,12.44,40.17,3.41,3.17,7.48,3.25,10,3.25,8.94,0,13-7.4,17.48-16.26,5.53-10.82,10.41-23.34,10.41-23.34s-6.1,33.91,10.57,33.91c6.09,0,12.19-7.89,15-11.95v.08s.16-.25.48-.82.67-1,1-1.54v-.16c2.44-4.23,7.89-13.91,16-29.92,10.48-20.65,20.57-46.51,20.57-46.51a147.37,147.37,0,0,0,4,16.75c1.79,6.18,5.69,12.93,8.7,19.51-2.44,3.42-3.9,5.37-3.9,5.37l.08.08c-1.95,2.6-4.15,5.37-6.43,8.13-8.29,9.92-18.21,21.22-19.51,24.47-1.54,3.83-1.22,6.67,1.79,8.95,2.2,1.62,6.1,2,10.24,1.62a45.46,45.46,0,0,0,15.29-3.49,53.1,53.1,0,0,0,13.17-6.91c8.13-6,13.09-14.56,12.6-25.94-.24-6.26-2.27-12.44-4.79-18.29.73-1.06,1.46-2.12,2.19-3.25A343.47,343.47,0,0,0,334.59,259a146.79,146.79,0,0,0,4,16.75c1.54,5.29,4.63,11.06,7.4,16.75-12,9.84-19.6,21.22-22.2,28.7-4.79,13.82-1,20.08,6,21.55,3.17.65,7.72-.82,11.14-2.28A50.3,50.3,0,0,0,355,333.24c8.13-6,15.94-14.39,15.53-25.69a49.14,49.14,0,0,0-3.49-15.2c10.24-4.23,23.49-6.67,40.32-4.64,36.18,4.23,43.34,26.84,42,36.27s-8.95,14.63-11.47,16.26-3.33,2.11-3.09,3.25c.33,1.71,1.47,1.63,3.66,1.3,3-.49,19-7.72,19.68-25.12,1-22.36-20.25-46.75-57.89-46.51Zm-279,94.07c-12,13.09-28.79,18-35.94,13.82-7.72-4.47-4.72-23.74,10-37.64,8.94-8.46,20.57-16.27,28.21-21.06,1.71-1.06,4.31-2.6,7.4-4.47a8.13,8.13,0,0,1,.81-.49c.57-.33,1.22-.73,1.87-1.14,5.45,19.84.25,37.24-12.35,51Zm87.4-59.44c-4.15,10.17-12.93,36.27-18.22,34.8-4.55-1.22-7.31-21-.89-40.49,3.25-9.84,10.16-21.54,14.23-26.1,6.58-7.31,13.74-9.75,15.53-6.74C221.33,273.16,211.17,301.45,208.57,307.79Zm72.11,34.48c-1.79.89-3.41,1.54-4.14,1.05-.57-.32.73-1.54.73-1.54s9-9.68,12.6-14.15c2-2.6,4.47-5.61,7.07-9v1c0,11.71-11.22,19.52-16.26,22.69Zm55.61-12.69c-1.3-1-1.13-4,3.25-13.41a50.34,50.34,0,0,1,12.36-15.94,20,20,0,0,1,1.22,7C353,321.86,342.64,327.31,336.29,329.58Z"/></svg>