<?xml version="1.0" encoding="utf-8"?>
<!-- Generator: Adobe Illustrator 25.0.0, SVG Export Plug-In . SVG Version: 6.00 Build 0)  -->
<svg version="1.1" id="Laag_1" xmlns="http://www.w3.org/2000/svg" xmlns:xlink="http://www.w3.org/1999/xlink" x="0px" y="0px"
	 viewBox="0 0 300 300" style="enable-background:new 0 0 300 300;" xml:space="preserve">
<style type="text/css">
	.st0{fill:#00FF7E;}
</style>
<g id="JvSAD">
	<g id="Logo">
		<g id="logo-2">
			<g id="cross">
				<path class="st0" d="M138.7,173.7c-0.2,0.7-0.4,1.8-0.9,2c-0.9,0.3-1.8,0.1-2.6-0.3c-1.2-0.7-1.5,0.3-2,0.8
					c-0.2,0.3-0.2,0.6,0,0.9c0.2,0.2,0.8,0.3,0.9,0.2c0.4-0.6,1.2-0.9,1.9-0.7c0.2,0.1,0.4,0.2,0.6,0.3c-0.1,0.2-0.2,0.4-0.4,0.5
					c-0.9,0.8-1.8,1.5-3.2,0.7c-0.2-0.2-1.1-0.1-0.5,0.7s0.6,2.2,0,2.1c-2.1-0.1-2,1.4-2.6,2.6c-0.1,0.2-0.5,0.4-0.8,0.5
					c-0.5,0.2-1.1,0.4-1.6,0.6c-0.9,0.5-0.1,0.9,0.2,1.3c-0.8,0.2-1.3,1.2-2.3,0.6c-0.6-0.4-1.1-0.5-1.3,0.3
					c-0.1,0.2,0.4,0.8,0.7,0.9c0.6,0.2,0.9,0.3,0.3,0.8c-0.3,0.2-0.9,0.2-0.9,0.3c-0.5,2.6-1.1,0-1.6,0.1c0-0.4,0-0.7,0-1.9
					c-0.4-0.5-0.5-0.4-0.7-0.3l1.1,1.1c0.1-0.3,0.4-0.6,0.3-0.8s-0.5-0.5-0.7,0c-0.9,0.6-1.2,1.7-0.6,2.6c0,0,0,0.1,0.1,0.1
					c0.9,1.1,0.3,1-0.6,1c-0.4,0-0.7,0-0.9-0.3c-0.1-0.6-0.4-1.2-0.7-1.8l-1.6,1c0.4,0.4,0.9,0.7,1.4,1c0.2,0.1,0.6-0.2,0.9-0.2
					c0.1,0.8,0.7,1.5,0.5,1.7c-0.6,0.8-1.3,1.6-2,2.2c-0.1,0.1-0.4,0-0.6-0.1c-0.9-0.5-0.9-0.5-1,0.6c0,0.1,0,0.2,0,0.4l-1.1-0.7
					c-0.1,0.4-0.1,0.8-0.2,1.2c0.1,0.3,0.2,0.5,0.3,0.8l-1.8,0.8c-0.1-0.3-0.2-0.7-0.2-1c0-0.5,0-1,0.2-1.4c0.1-0.2-0.1-0.1-0.2,0
					l0.3,0.3c0.1-0.1,0.2-0.3,0.3-0.4c0,0-0.1-0.1-0.4,0.1c-0.7,0.9-1.2,1.5-1.6,2.1c-0.2,0.3-0.1,0.9-0.3,0.9
					c-2.6,0.5-1.8,2.1-1.3,3.6c0.1,0.3-0.2,0.6-0.3,1c-0.1-0.4-0.3-0.8-0.5-1.2c-0.1-0.2-0.4-0.2-0.6-0.3c0-0.2,0-0.5,0-0.7
					c-0.1-0.2-0.1-0.4-0.2-0.6c-0.2,0.2-0.3,0.4-0.5,0.6c-0.1,0.2,0,0.5,0.2,1c-0.3-0.1-0.5-0.3-0.6-0.3c-0.8,0.2-1.5,0.5-2.2,0.8
					c-0.1,0-0.1,0.3-0.1,0.5s0.2,0.2,0.3,0.2c1-0.2,1.9-0.6,2.7-1.1c0-0.3,0.3-0.3,0.5-0.3c0.3,1.8-1.5,2.3-2.3,3.4
					c-0.5,0.7-1.3,1.6-1.5-0.2c0,0-0.4,0-0.5,0.1c-0.2,0.4-1.2,0.5-0.4,1.3c0.2,0.2,0.1,0.8,0.1,1.2c-2.6-0.3-1.8,1.7-2,3
					c-0.1,0.8-1.8,1.5-2.9,1.1c0,0,0-0.2,0-0.4c0.3-0.3,0.7-0.7,0.9-1.1c0.1-0.2-0.1-0.1-0.2,0l0.3,0.3c0.1-0.1,0.2-0.3,0.3-0.4
					c0,0-0.1-0.1-0.4,0.1c-0.3,0.4-0.6,0.7-0.9,1.1l-2.2,0.7c-0.3-0.3-0.6-0.5-1-0.6c0.1-0.2,0.2-0.4,0.2-0.5c0-0.3-0.1-0.7-0.2-1
					c-0.2,0-0.5,0.1-0.5,0.1c0,0.5,0.1,0.9,0.4,1.3c0.4,0.1,0.7,0.3,1,0.6c0,0.9,0.4,2.3-0.8,2.5c-1.4,0.2-2.6,1.8-4.2,0.9
					c-0.3-0.1-0.5-0.2-0.8-0.2c0,0.2-0.2,0.6-0.1,0.7c1.2,1.2,0.8,2.3,0,3.5c-1.8-0.6-3.9-0.4-5.5,0.7c-0.1,0.2-0.2,0.3-0.3,0.5
					c0.2,0.1,0.4,0.2,0.6,0.2c0.7,0,1.5,0,2.2,0c0.1,1.1-2.4,0.6-1.5,2.3c0,0.1-0.5,0.7-0.6,0.6c-1.7-0.8-1.3,1.6-2.7,1.6
					c-0.7,0,0.2,0.6,0.2,0.9c0,0.3,0,0.7-0.1,1c-0.4-0.1-1,0.1-1.2-0.2c-0.6-0.6-1.2-1.3-1.6-2.1c-0.3-0.7,0.2-1.1,1-1.1
					c0.1,0,0.2-0.8,0.4-1.1c-0.3,0.1-0.5,0.1-0.8,0.2c-0.7,0.3-1.7,0.4-1.3,1.6c0.8,2.5-2.2,3.2-2.5,5.2c-0.3-0.1-0.7-0.1-1-0.2
					c-0.3-0.1-0.5-0.2-0.8-0.3c-0.1,0.2-0.1,0.5-0.1,0.7c0.1,0.2,0.2,0.4,0.4,0.6c0.6,0.6,0.4,1-0.1,1.5c-0.2,0.4-0.4,0.8-0.5,1.2
					c-0.3-0.5-0.6-1-1-1.5c-0.2-0.2-0.5-0.2-0.8-0.4c-0.1,0.3-0.1,0.7,0,1s0.3,0.6,0.5,0.8c-0.3,0.1-0.7,0.2-1,0.1
					c-0.5-0.1-1.2-0.7-1.5-0.5c-0.7,0.4-0.1,0.9,0.1,1.5c0.5,1.2-0.6,2.3-0.8,3.5c-0.6-0.3-1.1-0.8-1.5-1.4
					c-0.4-0.7-0.6-0.8-0.7-0.7c-0.4,0.1-0.8,0.3-1.1,0.4c0.4,0.4,0.9,0.7,1.4,1c0.8,0.4,0.8-0.6,1.2-0.9c-0.3-0.2-0.5-0.4-0.8-0.6
					c-0.1-0.1-0.2,0,0,0.7c0.3,1.1,0.4,2.2,0.3,3.3c0,0.4,0.2,1.6-0.7,0.6c-0.6-0.6-1.7,1.6-1.5-0.4c0-0.5-0.1-0.9-0.4-1.3
					c-0.2-0.3-0.5-0.5-0.8-0.7c-0.1,0.4-0.1,0.8-0.1,1.3c0,0.3,0.1,0.5,0.2,0.8c-0.2,0.1-0.5,0.1-0.7,0.1c-0.6-0.3-1.3-0.5-1.9-0.7
					c-0.9-0.1-1-0.6-0.7-1.2c1-2,2.1-3.8,3.4-5.6c1.7-2,3.3-4.2,4.6-6.6c0.3-0.6,1.3-0.9,1.8-1.4s0.8-1.4,1.3-2
					c0.8-0.9,2.2-1.6,2.5-2.6c0.4-1.3,1.6-1.2,2.2-2c0.7-1.1,1.5-2.1,2.3-3.1s2-1.5,1.7-3c0-0.2,0.2-0.4,0.4-0.5
					c2.4-0.2,2.4-2.7,3.8-4c0.5-0.5,0.6-1.4,1.7-1.2c0.2,0,0.6-0.1,0.6-0.2c0.2-2.2,2.7-2.9,3.1-4.9c0.3-0.3,0.7-0.6,1.1-0.6
					c0.6-0.1,1.2-0.3,1.7-0.6l-1-1.6c-0.3,0.6-0.7,1.2-1,1.8c0,0,0.4,0.3,0.3,0.4c-0.4,0.1-0.8,0.3-1.1,0.6
					c-1.2-0.3-1.7,0.7-2.4,1.3c-0.3,0.2-0.6,0.2-0.9,0.1c-0.3-0.2-0.4-0.6-0.3-0.9c0.2-0.6,0.5-1.6,1-1.7c2.3-0.6,2.8-3.2,4.8-4.2
					c0.7-0.3,0.9-1.4,1.6-1.9c2.4-1.6,3.5-4.4,6.1-6c2.1-1.1,3.8-3,4.7-5.3c0.5-1.4,1.8-1.6,2.5-2.6c3-4.5,7-8.2,10.8-12
					c0.5-0.4,1.1-0.7,1.7-1c-0.5-0.4-0.8-0.7-0.1-1.3c0.3-0.2,0.3-0.9,0.6-1.2c1-0.9,2.2-1.8,3.3-2.6c-0.6-1.7,1.1-2.6,1.7-3.7
					c1-1.8,2.8-3,4.3-4.5c0.6-0.6,1-1,0.2-1.8s0.2-0.5,0.5-0.7c1.8-1.2,1.6-1.1,0.4-2.9c-2.3-3.2-5.4-5.5-8.5-7.8
					c-0.8-0.5-1.5-1.2-2-2.1c-0.6-1.2-1.8-2-3.2-2c-0.2-1-1.1-1.7-2.1-1.5h-0.1c-0.1-0.4,0-1-0.2-1.3c-1.9-2-3.8-3.9-5.8-5.8
					c-0.3-0.3-0.9-0.2-1.5-0.2h0.2c0-0.2-0.1-0.4-0.2-0.6c0,0-0.3,0.1-0.4,0.1c0.1,0.2,0.3,0.3,0.5,0.4c0,0.2-0.2,0.7-0.4,0.7
					c-0.3,0-0.7-0.1-0.9-0.4c-3-2.9-5.8-6-9.2-8.5c-1.1-0.8-1.4-2.2-2.8-2.9s-2.1-2-3.2-3L76.9,95.9c-0.4-0.4-0.8-0.9-1.3-1.3
					c-0.8-0.7-1.3-1.6-0.7-2.5c0.3-0.4,1.3-0.2,5.6,3.7c3.5,3.8,3.5,3.6,3.4,3.4c-0.8-1-1.4-2.6-2.4-2.8c-1.9-0.5-1.4-2-2-3
					c-0.3-0.4-0.7-0.6-1.1-0.8c-0.5-0.3-1-0.5-1.5-0.8c-0.2,0.7,0.1,1.5,0.8,1.9c0.5,0.4,1.3,0.9,1.2,1.3c-0.1,2.1,2,2.3,2.9,3.5
					c0.5,0.5,1,1,1.6,1.4c0.1,0.1,0.4-0.1-2.9-4.1c-4.7-5.4-6.1-6.6-7.3-7.9c-0.6-0.7-0.9-1.7-0.8-2.7c0.1-1.3,0.6-0.4,1-0.2
					s0.8-0.2,1.2-0.3c0.1,0,0-0.6-0.1-0.7c-2.4-0.9-2.2-3.6-3.5-5.2c-0.5-0.5,0.1-1.9-1.3-2c-0.1,0-0.3-0.5-0.2-0.6
					c0.7-1.3,0.6-2-1.1-2.3c-0.4,0-1-0.8-1.1-1.3c-0.1-0.9-0.7-0.8-1.3-0.8c-1.6,0-0.3-1-0.3-1.1c-0.8-1-1.8-1.9-2.9-2.6
					c-2.8-1.2-2.6-1.2-3-4c-0.3-2.8,1.2-5.2,1.9-7.7c0.2-0.8-0.2-1.7,0.8-2.4c1.2-0.8,1.1-1.1,2.6-0.1c0.7,0.5,1.1,0.2,1.5-0.3
					c0.8-1.1,2.4-1.4,3.5-0.5c0.1,0.1,0.2,0.1,0.2,0.2c0.8,0.5,1.5,1,2.3,1.6c0.8-1.2,1.2,0,1.8,0.3c1.1,0.5-0.1,1.5,0.4,1.8
					s1.3,0.3,2,0.6s1.7,0.7,1.7,1c0,2.2,2.1,2,3.1,3c0.2,0.3,0.5,0.5,0.8,0.6c2,0.5,0.8,3.2,2.3,3.6c1.9,0.5,2.7,1.4,3.1,3.3
					c0.3,1.3,1.8,2.4,2.7,3.6c0.6,0.7,1.1,1.5,1.6,2.3s0.7,0,1-0.1c0.6-0.2,1-0.2,1.3,0.6c0.5,1.6,1.5,2.8,3,3.5
					c1.9,0.8,3.3,2.6,3.7,4.6c0.1,0.8,1.8,1.2,2,2c0.4,1.3,1.5,1.4,2.3,1.9c1.1,0.7,1.3,0.9,1.6,2.8c0.1,0.5,0.3,1.3,1.3,0.9
					c0.3,0,0.5,0,0.8,0v1.1c-0.2,0-0.4,0.1-0.6,0.2c0,0,0.1,0.3,0.1,0.4c0.2-0.1,0.3-0.3,0.4-0.5c0.5,0.3,1,0.7,1.5,1.2
					c0.2,0.2,0.4,0.7,0.4,0.7c0.4-0.1,0.9-1.2,1,0.1c0.1,1-0.8,0.6-1.3,0.7c-0.3,0.1-0.6,0.2-0.9,0.4c0.2,0.1,0.4,0.3,0.6,0.3
					c1.9,0.1,3.3,0.7,4,2.7c0.1,0.4,1,0.5,1.4,0.8c0.7,0.4,1.3,0.9,2,1.3s0.7,1,0.1,1.6c0.2,0.2,0.3,0.4,0.5,0.5
					c1,0.8,2.6,1.4,2.9,2.4c0.6,1.6,1.7,1.6,2.8,2.1c0.3,0.1,2.5,0.7,1.1,2.2c1,0.7,1.9,1.7,3,1.9c1.7,0.3-1.4,1.7,0.5,1.5
					c0.9-0.1,1.7,0.3,2.2,1c0.5,0.6,1,1.3,1.2,2c0.3,1.5,2.4,1.4,2.6,3.1v-0.2c-0.2,0-0.4,0.1-0.6,0.2c-0.1,0,0.1,0.3,0.1,0.4
					c0.2-0.1,0.3-0.3,0.4-0.5c0.6,0.3,1.1,0.7,1.6,1.1c0.8,0.6,0.2,0.9-0.2,1.3l0.2,0.2c2.1-0.2,2.3,1.9,3.5,2.8s2.2,1.6,3.3,2.5
					c0.8,0.7,0.2,1.2-0.2,1.8c-0.1,0.2,0,0.6,0,1c0.3-0.1,0.5-0.3,0.8-0.4c1.3-0.5,1.6,0.4,2.2,1.5c-0.3,0-0.6-0.2-0.8-0.2
					c-0.3,0-0.5,0.3-0.7,0.4l1,1c0.3-0.3,0.5-0.7,0.6-1.2c1.6,0.3,2.1,2.5,4.1,2.9c0.4,0.1,0.6,0.6,1.1,0c0.9-1.1,1.8-2.2,2.9-3.2
					c1.1-0.8,2-1.8,2.6-2.9c0.6-1.3,1.5-2.4,2.6-3.3c1-0.9,1.4-2.3,2.7-2.9c0.8-0.4,1.2-1.7,1.9-2.5s1.4-1.3,1.3-2.4
					c-0.1-0.4,0.6-1.1,1.1-1.3c2-1.2,3.7-2.9,4.9-4.9c0.7-0.8,1.5-1.6,2.3-2.4c0.8-1,2.3-1.6,2-3.2c0-0.1,0.5-0.5,0.7-0.5
					c1.3,0,1.7-0.7,2.3-1.7c1.1-1.5,2.3-2.8,3.8-4c1.6-1.6,3-3.4,4.2-5.3c0.4-0.6,0.8-1.1,1.2-1.7s0.9-0.6,1.3,0
					c0.3-0.5,0.5-1,0.8-1.4c0.5-0.9,1.1-1.8,1.8-2.5c1.1-1.1,1.9-2.5,3.6-2.9c-0.1-2,1.6-2.8,2.6-4.1s1.9-2.4,2.9-3.6
					c0.7-0.9,1.3-1.9,2.1-2.8s1-2,2.3-2.3c0.2-0.1,0.4-0.3,0.5-0.5c0.8-2.7,3.2-4,4.7-6.1c0.6-1.1,1.4-2.2,2.4-3
					c2.2-1.7,4.2-3.7,5.9-6c0.9-1.2,2.2-1.9,3.2-2.9s2.9-0.6,4.4-0.9c1.4-0.1,2.7,0,4,0.5c1,0.3,2,0.5,3,0.8
					c0.3,0.1,4.3,3.6,4.6,3.8c0.6,0.5-0.1,0.7-0.2,1.1c-0.3,1.2-1.9,2.4-0.2,3.8c0.1,0.3,0,0.7-0.2,0.9c-1.9,1.3-2.5,4-5,4.6
					c-0.3,0.1-0.5,0.4-0.6,0.7c-0.8,2.5-2.9,4.1-4.7,5.8s-3.1,3.7-5.4,4.8c-0.7,0.3-1,1.5-1.6,2.2c-0.8,0.9-1.6,2.2-2.6,2.5
					c-1.6,0.4-1.2,1.8-2,2.6c-0.8,0.8-1.6,1.6-2.6,2.3c0-0.2,0.4-0.4,0.4-0.5c-0.1-0.4-0.3-0.8-0.5-1.1c-0.3,0.2-0.8,0.4-0.9,0.7
					s0.3,0.6,1,1c0.4,0.3,0.4,1.1,0.2,1.2c-1.2,0.2-2.2,1.1-2.6,2.2c-0.3,1.1-2.4,1-1.6,2.6c0,0.1-0.2,0.4-0.4,0.5
					c-2.2,1.5-3,4.4-5.6,5.8c-1.6,0.8-2.4,3-3.6,4.6c-0.4,0.6-0.9,1.2-1.4,1.8c-1.6-0.9-0.2,1.5-1.3,1.1c-0.3,1.3-2.2-0.2-2.5,1.4
					c-0.2,0.9-0.5,1.7-0.8,2.6c-0.2,0.9-1.5-1.5-1.5,0.5c0,0.5-1,1-1.3,1.6s-0.5,1.5-0.8,2.2c-0.1,0.2-0.6,0.2-0.9,0.4
					c-1.4,0.8-3.1,1.2-2.9,3.4c0,0.5-0.9,1.4-1.5,1.5c-1.9,0.4-2.4,1.9-2.7,3.3c-0.3,1.7-1.6-1.1-1.6,0.5c0,1.2-0.8,0.9-1.9,1.1
					c0-0.2,0.4-0.4,0.4-0.5c-0.1-0.4-0.3-0.8-0.4-1.1c-0.3,0.2-0.8,0.4-0.9,0.7s0.3,0.6,1,1c0.4,0.1,0.8,0.4,1,0.8
					c0.4,0.6,0.4,1.2-0.4,1.3s-1.7,0-2.6,0.1c-0.1,0-0.1,0.9-0.1,1.4c-1.3-0.4-2,0.6-2.8,1.3c-0.9,0.9-0.2,0.8,0.4,0.9
					c0.1,0,0.3,0.5,0.2,0.6c-0.5,0.6-1,1-1.5,1.6c-0.1,0.1,0,0.5,0.1,0.7c0.3,0.3,0.6,0.5,1,0.7c-0.3,0.5-0.6,1-1,1.4
					c-0.3,0.2-0.7,0.2-1,0.1c-1.3-0.2-1.8,0.2-1.7,1.6c0,0.3-1.1,0.7-1.4,1.2c-0.8,1.6-3.1,1.7-3.3,3.8c0,0.1-0.7,0.1-1,0.1
					s-0.5,0-0.7,0.1c-0.6,0.6-0.3,3.8,0.4,4.3c1,0.7,1.4,2.1,2.5,2.8c0.8,0.5,0.6,2,2,2.1c0.2,0,0.8,0.5,0.7,0.8
					c-0.3,2,1.3,2.1,2.6,2.6c0.4,0.1,1.1,0.3,1.1,0.5c0.3,2.4,2.5,3.2,3.9,4.7c1,1.2,1.9,2.5,2.6,3.9c0.2,0.6,0.7,1.1,1.2,1.3
					c1,0.4,1.8,1.3,1.9,2.4c0,0.6,0.6,1.7,1,1.7c2,0.1,1.8,2.8,3.6,2.9c1,0.1,1.1,1,1.6,1.5c1.4,1.4,2.5,2.9,4,4.2
					c1.9,1.6,3.2,3.9,5,5.6c2.7,2.5,5.6,4.7,8.5,7.1c0.2,0.2,0.9,0.3,1,0.2c0.7-1,1.2-0.3,1.6,0.2c1.3,1.6,3.2,2.6,4,4.6
					c0.2,0.6,1.4,0.8,2,1.4c2.1,2,3.9,4.2,5.5,6.6c1.6,2.4,4,4.3,6,6.4c0.6,0.6,1.6,1.1,1.8,1.8c0.4,2.2,2.5,3.3,3.2,5.3
					c0.5,1.8,1.6,3.4,3.1,4.6c0.4,0.3,0.6,1,0.8,1.5c0.6,1.1,0.2,2.3-0.9,2.3c-2.4,0-3.9,1.9-6.1,2.3c-0.3,0.1-0.6,0.7-0.6,1
					c0,1.4,0.8,1.9,2.6,1.9c1.4,0,2,1.1,2.6,2.2c0.2,0.5,0.4,1.1,0.5,1.6s1.3,0.5,0.6,1.3c-0.1,0.1-0.8-0.4-1.2-0.4
					s-1.2,0.4-1.2,0.8c-0.2,1-0.2,1.9-0.1,2.9c0.1,0.6-0.5,1.5,0.5,1.7c0.2,0,0.7-1.1,1-1.7c0.1-0.5,0.1-1,0.1-1.4
					c0.3,0.1,0.5,0.1,0.8,0.1c0.4,0,1.2-0.3,1.3-0.1c0.7,1.4,1.9,2.6,3.3,3.4c0.3,0.2,0.3,0.7,0.5,1.1c-0.4,0-0.8,0.1-1.3,0.1
					c-0.1,0-0.2-0.2-0.3-0.2c-1.3-1-1.9-0.7-2.1,0.8c-0.1,0.8-0.2,1.3,1.1,0.6s1.9-0.2,1.9,1.4c0.1,0.7,0.1,1.5,0,2.2
					c-0.3,0.8-0.6,2-1.9,0.7c-0.3-0.3-1.2,0-1.8-0.1c-0.3-0.1-0.6-0.3-0.6-0.6s0.2-0.6,0.4-0.8c0.5-0.2,1.4,0,0.5-0.9
					c-0.3-0.3-0.6-0.9-1-0.2c-0.7,1.1-1.4,1.1-2.1,0c-0.3-0.4-0.6-0.7-1-1c0-0.1-0.2,0-0.2,0c-0.1,0.2-0.3,0.5-0.2,0.6
					c0.7,1.3,1.4,2.6,2.1,3.9c0.1,0.3,0,0.6,0,1c-0.4,0-1,0.1-1.2-0.1c-1.4-1.3-3.2-2.1-4.2-4s-2.9-3.5-4.3-5.2
					c-4.7-5.3-9-10.9-13-16.7c-1-1.4-2.2-2.8-3.4-4.1c-2.2-2.5-4.5-5-6.8-7.5c-1-1.1-2.4-2.3-2.7-3.6c-0.3-1.2-1.6-0.9-1.7-1.8
					c-0.1-0.9-0.8-1.5-1.7-1.6c-0.2-0.1-0.4-0.2-0.5-0.4c-1-3-3.8-4.6-5.4-7.3c-0.9-1.6-2.3-3.4-4.7-3.6c-1-0.2-1.8-0.9-2.1-1.9
					c-0.8-1.8-2-3.4-3.3-4.9c-2.9-3.3-5.9-6.4-8.8-9.6c-1-1.1-2.1-2-3.1-3.1c-0.8-0.9-1.6-2-2.3-3c-0.8-1.2-2.4-1.6-3.2-3
					s-2.2-2.3-3.3-3.4s-2.2-2.3-3.4-3.4s-3.2-0.9-3.6,0.5c-0.5,1.6-1.8,1.2-2.6,1.9c-0.1-0.2-0.3-0.5-0.3-0.6
					c0.9-1.1-0.1-0.8-0.6-0.8c-0.6-0.1-1.2-0.1-1.2,0.9c0,0.5,0.9,0.5,0.4,1.4c-0.5,1.2-1.4,2.1-2.6,2.5c0.1,1.2-0.3,2.3-1.1,3.2
					c-0.3,0.5-1.2,0.6-2,0.8c-0.1-0.1,0.2-0.3,0.2-0.4c0-0.6-0.1-1.2-0.3-1.7c-0.1-0.2-0.9-0.1-1.4-0.1c-0.1,0-0.3,0.5-0.2,0.6
					C137.7,172.8,138.2,173.3,138.7,173.7z M222.9,229.7c0.2-0.2,0.5-0.5,1-2.1c-0.1,0.2-0.3,0.5-0.2,0.6c0.8,1.4,1.6,2.8,2.4,4.2
					c0,0.1,0.2,0.1,0.2,0.1c0.1-0.2,0.3-0.4,0.3-0.6c0.1-2-1.2-3.2-2.4-4.4c0-0.1-0.2,0-0.5,1.3c-0.3,0.3-0.6,0.7-0.7,1.1
					L222.9,229.7c-0.2,0-0.4,0.1-0.5,0.2c-0.1,0,0.1,0.3,0.1,0.4C222.7,230.2,222.8,230,222.9,229.7L222.9,229.7z M132.9,174.1v-0.3
					c-0.2,0-0.4,0.1-0.6,0.2c-0.1,0,0.1,0.3,0.1,0.4c0.1-0.1,0.3-0.2,0.9-1.3l-0.4,0.4l0.3,0.3c0.1-0.1,0.2-0.3,0.3-0.4
					S133.5,173.1,132.9,174.1z M208.6,204.4c-0.2,0.4-0.3,0.7-0.4,1.1c0,0.2,0,0.5,0,0.7c0.2-0.2,0.6-0.3,0.7-0.5s-0.1-0.6-0.7,0.9
					v-0.3c-0.2,0.1-0.4,0.1-0.6,0.2c0,0,0.1,0.3,0.1,0.4C207.8,206.7,208,206.6,208.6,204.4z M80.2,222.9c-0.4-0.3-0.5-0.5-0.6-0.5
					c-0.3,0-0.7,0.1-1,0.2c0,0.2,0.1,0.5,0.1,0.5c0.4,0,0.8-0.1,1.6-2.4c-0.2,0.4-0.3,0.7-0.4,1.1c0,0.2,0,0.5,0,0.7
					c0.2-0.2,0.6-0.3,0.7-0.5S80.5,221.2,80.2,222.9z M99.8,206.4v-1l-1.3,1c0.2,0.2,0.4,0.5,0.5,0.5c0.3-0.1,0.6-0.3,1.3-3.2
					c-0.2,0.6-0.4,0.8-0.4,1.1c0,0.2,0,0.5,0,0.7c0.2-0.2,0.6-0.3,0.7-0.5S100.4,204.3,99.8,206.4z M143.2,165.3l-0.4-0.4l-0.3,0.3
					c0.1,0.1,0.3,0.2,0.4,0.3c0,0,0.1-0.1-1.3-0.4c0.5-0.3,0.9-0.5,0.8-0.6c-0.1-0.4-0.3-0.8-0.4-1.1c-0.3,0.2-0.8,0.4-0.9,0.6
					S141.4,164.7,143.2,165.3z M225.1,226.1c0.1,1.1,0.9,0.6,3,2.6c-0.2-0.5-0.4-0.9-0.7-1.3c-0.2-0.2-0.6-0.4-0.9-0.5
					c0,0.2,0,0.5,0,0.7c0.1,0.6,0.3,1.1,0.5,1.6c0.1,0.2,0.5,0.3,0.8,0.4c0.1-0.2,0.1-0.4-1.3-2.8c-0.1-1.1-0.9-0.6-2.4-0.4
					c0.5-0.3,0.9-0.5,0.8-0.6c-0.1-0.4-0.3-0.8-0.4-1.1c-0.3,0.2-0.8,0.4-0.9,0.6S224,225.9,225.1,226.1z M227.4,242.4l0.7-0.5
					c-0.2-0.1-0.4-0.4-0.5-0.4c-0.3,0.1-0.6,0.1-0.9,0.3c0.7,0.4,1.4,0.8,2.1,1l-0.4-0.6l-0.4,0.4c-0.9,0.8-1.2,1.8-0.2,2.7
					c0.3,0.3,1,0.3,1.5,0.5c-0.2-0.3-0.3-0.8-0.6-1C227.4,244.1,229.1,243.5,227.4,242.4L227.4,242.4z M215.1,205.5
					c-0.1,0.2-0.3,0.6-0.2,0.8c1.5,2.1,3,4.1,4.5,6.2c1.6,0.1,1.3,1.3,1.4,2.3c0,0.3,0.5,0.9,0.7,0.9c1-0.1,1.3,0.4,1.7,1.3
					c0.6,1.1,1.4,2.2,2.2,3.1c0.3,0.1,0.6,0.1,0.9-0.1c0.2-0.3,0.3-0.6,0.2-0.9c-0.9-1-2.1-1.8-2.8-2.9c-2-3.4-4.7-6.3-6.8-9.6
					C216.6,206,215.7,205.9,215.1,205.5z M213.2,209.1l-0.6,0.3c1.2,1.3,0.5,3.2,1.5,4.5c0.1,0.1,0.5,0.2,0.5,0.2
					c0.4-0.8,0.7-1.7,0.9-2.6C215.6,210.7,214.1,209.3,213.2,209.1L213.2,209.1z M95.3,213.3c0-0.1-0.1-0.3-0.1-0.4
					c-0.4-0.6-0.6-1.4-1.1-1.6c-0.8-0.3-1.8,0-2.2,0.8c-0.2,0.3-0.3,0.7-0.2,1c0.1,0.2,0.8,0.4,0.9,0.3c0.6-0.6,1.1-0.8,1.7,0
					C94.4,213.6,94.9,213.4,95.3,213.3z M223.6,222.6c-0.1-0.6-2.2-3.1-2.7-3c-0.1,0-0.2,0.1-0.2,0.2c0,0.5-0.2,1.2,0,1.4
					c0.8,0.7,1.6,1.3,2.5,1.8C223.3,222.9,223.5,222.7,223.6,222.6z M86.5,217.9c-0.1-0.2-0.2-0.4-0.3-0.6c-0.2-0.3-0.5-0.5-0.8-0.8
					c-0.2,0.3-0.3,0.6-0.4,0.9c-0.1,0.2-0.1,0.5,0,0.7c0.3,0.9-1.5,2.2,0.2,2.5c1.1,0.2-0.1-1.7,1-2.1
					C86.4,218.5,86.4,218.1,86.5,217.9z M194.8,188c0-0.2,0-0.4,0-0.6c-0.9-0.3-1.8-0.6-2.7-0.9c0,0-0.3,0.4-0.2,0.6
					c0.2,0.6,0.4,1.2,0.8,1.8c0,0.1,0.5,0.1,0.7,0C193.9,188.5,194.5,188.2,194.8,188z M210.8,200.2c-0.1,0.2-0.5,0.7-0.4,0.7
					c0.7,0.8,1.4,1.5,2.2,2.2c0.1,0.1,0.2,0.1,0.4,0c0.1-0.1,0.3-0.4,0.3-0.5c-0.5-0.8-1-1.6-1.6-2.3
					C211.5,200.3,211.1,200.3,210.8,200.2L210.8,200.2z M221.1,236.3c0.1-0.1,0.3-0.3,0.3-0.3c-0.3-0.6-0.6-1.2-1-1.7
					c-0.1-0.2-0.6-0.1-0.9-0.1c-0.1,0-0.2,0.2-0.2,0.2L221.1,236.3z M192.3,183.9c-0.6-0.3-1-0.7-1.1-0.6c-0.5,0.4-0.9,0.8-1.4,1.2
					c0.4,0.1,0.9,0.2,1.3,0.2C191.5,184.7,191.8,184.3,192.3,183.9L192.3,183.9z M105,202.9l-1.3-1c-0.1,0.2-0.3,0.5-0.2,0.6
					c0.4,0.5,0.8,0.9,1.2,1.3L105,202.9z M223.7,238.2c-0.4,0.5-0.7,0.8-0.8,1.1c-0.1,0.2,0.3,0.5,0.5,0.7c0.3-0.2,0.6-0.5,0.9-0.8
					C224.4,239.2,224.1,238.8,223.7,238.2L223.7,238.2z M210.6,204.6l-0.9,0.4l1,1.2c0.1-0.2,0.4-0.4,0.3-0.6
					C211,205.2,210.8,204.9,210.6,204.6L210.6,204.6z M212,209.9l-0.5-0.8l-1,1.2c0.2,0.1,0.5,0.3,0.6,0.2
					C211.4,210.4,211.7,210.1,212,209.9L212,209.9z M217,214.1l-0.8,0.5l1.2,1c0.1-0.2,0.3-0.5,0.2-0.6
					C217.5,214.7,217.3,214.4,217,214.1L217,214.1z M78.1,63.1l1-1c-0.3-0.1-0.8-0.4-0.9-0.3c-0.3,0.3-0.5,0.6-0.6,1
					C77.6,62.7,78,62.9,78.1,63.1z M228.8,222l-1.3-1c-0.1,0.2-0.3,0.5-0.2,0.6c0.2,0.3,0.5,0.5,0.9,0.7
					C228.3,222.4,228.6,222.1,228.8,222z M115.4,107.3c0.4-0.9,0.6-1.2,0.5-1.3c-0.3-0.3-0.6-0.5-0.9-0.8c-0.1,0.2-0.4,0.4-0.3,0.6
					C114.9,106.3,115.2,106.8,115.4,107.3z M102.3,206.3c0.2-0.3,0.3-0.7,0.4-1c0-0.2-0.2-0.4-0.3-0.6l-1,1.2L102.3,206.3z
					 M202.8,98.3l0.6,0.9c0.1-0.3,0.2-0.7,0.2-1c-0.1-0.4-0.2-0.7-0.4-1L202.8,98.3z M129.4,178.1c-0.3-0.2-0.6-0.4-0.9-0.6
					c-0.1-0.1-0.4,0.1-0.6,0.2l1,1.2L129.4,178.1z M90.8,75.4c-0.1-0.1-0.2-0.3-0.3-0.4c-0.4,0.1-0.7,0.3-1,0.6
					c-0.1,0.1,0.2,0.6,0.3,0.9L90.8,75.4z M207.7,196.5l-0.9,0.3l1,1.2c0.1-0.2,0.4-0.4,0.4-0.6C208,197.1,207.9,196.8,207.7,196.5z
					 M172.1,134.2l-0.4-0.9l-1.2,1c0.2,0.1,0.4,0.4,0.6,0.3C171.5,134.5,171.8,134.3,172.1,134.2z M219.3,232l-0.5-0.8l-1,1.2
					c0.2,0.1,0.5,0.3,0.6,0.2C218.8,232.5,219.1,232.3,219.3,232L219.3,232z M142.2,127.2c-0.2,0.3-0.4,0.5-0.4,0.7
					c0.1,0.3,0.2,0.6,0.3,0.9c0.1-0.2,0.4-0.4,0.3-0.6C142.5,127.8,142.4,127.5,142.2,127.2z M165.5,134.3l-0.6-0.3
					c-0.1,0.2-0.3,0.4-0.2,0.6s0.3,0.4,0.5,0.6L165.5,134.3z M142.4,136.1c0.1-0.3,0.1-0.7,0.1-1c0-0.1-0.3-0.2-0.5-0.3
					c-0.1,0.3-0.2,0.7-0.2,1C141.8,135.8,142.1,135.9,142.4,136.1z M73.2,229.8l0.4,0.6c0.2-0.3,0.3-0.6,0.3-0.9
					c0-0.2-0.2-0.4-0.3-0.6L73.2,229.8z M228.6,235.7c-0.3,0.2-0.6,0.3-0.6,0.4c0,0.3,0.1,0.7,0.2,1c0.2-0.1,0.4-0.2,0.5-0.3
					C228.7,236.4,228.7,236,228.6,235.7L228.6,235.7z M136.7,126.5l-0.8,0.4c0.2,0.1,0.4,0.4,0.6,0.3c0.3-0.1,0.6-0.2,0.9-0.3
					L136.7,126.5z M72.1,57.4l1-0.4c-0.2-0.2-0.4-0.4-0.6-0.5s-0.4,0.1-0.6,0.2L72.1,57.4z M225.8,241.4c-0.2-0.3-0.3-0.6-0.4-0.6
					c-0.3,0-0.7,0.1-1,0.2c0.1,0.2,0.2,0.4,0.3,0.5C225.1,241.5,225.4,241.5,225.8,241.4L225.8,241.4z M88.8,216.4l-0.4-0.6
					c-0.2,0.3-0.3,0.6-0.3,0.9c0,0.2,0.2,0.4,0.3,0.6L88.8,216.4z M90.6,215.2l1-0.4c-0.2-0.2-0.4-0.3-0.6-0.5
					c-0.2,0-0.4,0.1-0.6,0.2L90.6,215.2z M97.6,212.6c-0.2-0.3-0.3-0.6-0.4-0.6c-0.3,0-0.7,0.1-1,0.2c0.1,0.2,0.2,0.4,0.3,0.5
					C96.9,212.8,97.2,212.7,97.6,212.6L97.6,212.6z M131.9,119.3l1-0.4c-0.2-0.2-0.4-0.4-0.6-0.5c-0.2,0-0.4,0.1-0.6,0.2
					L131.9,119.3z M100,208.7l-0.4-1c-0.2,0.2-0.3,0.4-0.5,0.6c0,0.2,0.2,0.4,0.2,0.6L100,208.7z M212.5,206.9
					c-0.3,0.2-0.6,0.3-0.6,0.4c0,0.3,0.1,0.7,0.2,1c0.2-0.1,0.5-0.2,0.5-0.3C212.6,207.6,212.5,207.3,212.5,206.9L212.5,206.9z
					 M66.6,67.4c-0.2-0.3-0.3-0.6-0.4-0.6c-0.3,0-0.7,0.1-1,0.2c0.1,0.2,0.2,0.5,0.3,0.5C65.8,67.5,66.2,67.5,66.6,67.4z
					 M230.9,245.9l0.4,0.8c0.1-0.2,0.4-0.4,0.4-0.6c-0.1-0.3-0.2-0.6-0.4-0.9L230.9,245.9z M190.6,113.6l-0.4-1
					c-0.2,0.2-0.4,0.4-0.5,0.6s0.1,0.4,0.2,0.6L190.6,113.6z M94,78.6L93.1,79c0.2,0.1,0.4,0.4,0.6,0.3c0.3-0.1,0.6-0.2,0.9-0.3
					L94,78.6z M219.9,78.1c-0.3-0.1-0.7-0.1-1-0.1c-0.1,0-0.2,0.3-0.3,0.5c0.3,0.1,0.7,0.2,1,0.2C219.6,78.6,219.7,78.3,219.9,78.1z
					 M205.1,201.8c-0.3,0.2-0.6,0.3-0.6,0.4c0,0.3,0.1,0.7,0.2,1c0.2-0.1,0.4-0.2,0.5-0.3C205.2,202.5,205.2,202.1,205.1,201.8z
					 M236.8,247.5c-0.3,0.2-0.6,0.3-0.6,0.4c0,0.3,0.1,0.7,0.2,1c0.2-0.1,0.4-0.2,0.5-0.3C236.9,248.2,236.8,247.8,236.8,247.5
					L236.8,247.5z M74.1,71.2l-0.4-0.6c-0.2,0.3-0.3,0.6-0.3,0.9c0,0.2,0.2,0.4,0.3,0.6L74.1,71.2z M129.4,181.7l-0.4-0.6
					c-0.2,0.3-0.3,0.6-0.3,0.9c0,0.2,0.2,0.4,0.3,0.6L129.4,181.7z M111.6,194.9c-0.2-0.3-0.3-0.6-0.4-0.6c-0.3,0-0.7,0.1-1,0.2
					c0.1,0.2,0.2,0.4,0.3,0.5C110.9,195.1,111.2,195,111.6,194.9L111.6,194.9z M174.9,185.4l0.4,0.8c0.1-0.2,0.4-0.4,0.3-0.6
					c-0.1-0.3-0.2-0.6-0.3-0.9L174.9,185.4z M189.9,185.9l-0.6-0.3c-0.1,0.2-0.3,0.4-0.2,0.6c0.1,0.2,0.3,0.5,0.5,0.6L189.9,185.9z
					 M116.6,193.6c0-0.2,0-0.4-0.1-0.6c-0.3,0-0.7,0-1,0c0,0.2,0,0.3,0,0.5C115.9,193.5,116.2,193.6,116.6,193.6L116.6,193.6z
					 M197,192.2c-0.3,0.2-0.6,0.3-0.6,0.4c0.1,0.3,0.1,0.7,0.2,1c0.2-0.1,0.5-0.2,0.5-0.3C197.1,192.9,197,192.5,197,192.2
					L197,192.2z M195.8,191.2l0.3,0.3c0.1-0.2,0.2-0.3,0.2-0.5c0-0.1-0.1-0.2-0.2-0.2L195.8,191.2z M101.9,93.6l-0.3-0.3
					c-0.1,0.2-0.2,0.3-0.2,0.5c0,0.1,0.2,0.2,0.2,0.2L101.9,93.6z M110.7,197.6l-0.3-0.3c-0.1,0.2-0.2,0.3-0.2,0.5
					c0,0.1,0.2,0.2,0.2,0.2L110.7,197.6z M197,197.8l-0.3-0.5c-0.1,0.1-0.2,0.2-0.2,0.2c0.1,0.2,0.1,0.3,0.2,0.5L197,197.8z
					 M200.6,197.8l-0.3-0.5c-0.1,0.1-0.2,0.2-0.2,0.2c0.1,0.2,0.1,0.3,0.2,0.5L200.6,197.8z M201.6,197.8l0.3,0.3
					c0.1-0.2,0.2-0.3,0.2-0.5c0-0.1-0.1-0.2-0.2-0.2L201.6,197.8z M106.9,198.7l0.3-0.3c-0.2-0.1-0.3-0.2-0.5-0.2
					c-0.1,0-0.2,0.1-0.2,0.2L106.9,198.7z M105.3,90.4c-0.1,0.1-0.2,0.2-0.2,0.2c0.1,0.2,0.1,0.3,0.2,0.5c0.1-0.1,0.2-0.2,0.2-0.2
					C105.5,90.7,105.4,90.6,105.3,90.4z M204.3,200.5l-0.3-0.3c-0.1,0.2-0.2,0.3-0.2,0.5c0,0.1,0.1,0.2,0.2,0.2L204.3,200.5z
					 M131.8,179.6c-0.1,0.1-0.2,0.2-0.2,0.2c0.1,0.2,0.1,0.3,0.2,0.5c0.1-0.1,0.2-0.2,0.2-0.2C132,179.9,131.9,179.8,131.8,179.6
					L131.8,179.6z M102.3,201c-0.1,0.1-0.2,0.2-0.2,0.2c0.1,0.2,0.1,0.3,0.2,0.5c0.1-0.1,0.2-0.2,0.2-0.2
					C102.5,201.3,102.4,201.1,102.3,201L102.3,201z M179.1,173.6l0.3-0.3c-0.2-0.1-0.3-0.2-0.5-0.2c-0.1,0-0.2,0.1-0.2,0.2
					L179.1,173.6z M207.8,201.8l-0.5,0.3c0.1,0.1,0.2,0.2,0.2,0.2c0.2-0.1,0.3-0.1,0.5-0.2L207.8,201.8z M179.1,172.1l0.3-0.3
					c-0.2-0.1-0.3-0.2-0.5-0.2c-0.1,0-0.2,0.1-0.2,0.2L179.1,172.1z M83.6,65c-0.1-0.1-0.2-0.2-0.2-0.2c-0.2,0.1-0.3,0.1-0.5,0.2
					c0.1,0.1,0.2,0.2,0.2,0.2C83.2,65.2,83.4,65.1,83.6,65z M90.8,216l-0.3-0.3c-0.1,0.2-0.2,0.3-0.2,0.5c0,0.1,0.2,0.2,0.2,0.2
					L90.8,216z M211.7,222.8l-0.3-0.5c-0.1,0.1-0.2,0.2-0.2,0.2c0.1,0.2,0.1,0.3,0.2,0.5L211.7,222.8z M164,138.6l0.3,0.5
					c0.1-0.1,0.2-0.2,0.2-0.2c-0.1-0.2-0.1-0.3-0.2-0.5L164,138.6z M223.5,76.1l-0.3-0.5c-0.1,0.1-0.2,0.2-0.2,0.2
					c0.1,0.2,0.1,0.3,0.2,0.5L223.5,76.1z M209.1,92.5l0.5-0.3c-0.1-0.1-0.2-0.2-0.2-0.2c-0.2,0.1-0.3,0.1-0.5,0.2L209.1,92.5z
					 M143.1,131.2l-0.3-0.3c-0.1,0.2-0.2,0.3-0.2,0.5c0,0.1,0.1,0.2,0.2,0.2L143.1,131.2z M68.7,233.9l-0.3-0.5
					c-0.1,0.1-0.2,0.2-0.2,0.2c0,0.2,0.1,0.3,0.2,0.5L68.7,233.9z M99.7,83.3L99.4,83c-0.1,0.1-0.2,0.3-0.2,0.5
					c0,0.1,0.1,0.2,0.2,0.2L99.7,83.3z M230.7,235.5l0.3-0.3c-0.1-0.1-0.3-0.2-0.5-0.2c-0.1,0-0.2,0.1-0.2,0.2L230.7,235.5z
					 M223.1,236.3l0.5-0.3c-0.1-0.1-0.2-0.2-0.2-0.2c-0.2,0.1-0.3,0.1-0.5,0.2L223.1,236.3z M225.7,237.6l-0.3-0.5
					c-0.1,0.1-0.2,0.2-0.2,0.2c0.1,0.2,0.1,0.3,0.2,0.5L225.7,237.6z M91.6,77.4l-0.3-0.3c-0.1,0.2-0.2,0.3-0.2,0.5
					c0,0.1,0.2,0.2,0.2,0.2L91.6,77.4z M183.7,119.6l-0.3-0.5c-0.1,0.1-0.2,0.2-0.2,0.2c0.1,0.2,0.1,0.3,0.2,0.5L183.7,119.6z
					 M186.8,117.3c-0.1-0.1-0.2-0.2-0.2-0.2c-0.2,0.1-0.3,0.1-0.5,0.2c0.1,0.1,0.2,0.2,0.2,0.2C186.4,117.5,186.6,117.4,186.8,117.3
					z M117.2,116.3l-0.5,0.3c0.1,0.1,0.2,0.2,0.2,0.2c0.2-0.1,0.3-0.1,0.5-0.2L117.2,116.3z M75.3,78.1L75,77.8
					c-0.1,0.2-0.2,0.3-0.2,0.5c0,0.1,0.2,0.2,0.2,0.2L75.3,78.1z M199,104.3l0.3-0.3c-0.2-0.1-0.3-0.2-0.5-0.2
					c-0.1,0-0.2,0.2-0.2,0.2L199,104.3z M113.7,103.9l-0.3-0.3c-0.1,0.2-0.2,0.3-0.2,0.5c0,0.1,0.2,0.2,0.2,0.2L113.7,103.9z
					 M197.9,101.9l0.3,0.3c0.1-0.2,0.2-0.3,0.2-0.5c0-0.1-0.1-0.2-0.2-0.2L197.9,101.9z M202.2,95.9c-0.1-0.1-0.2-0.2-0.2-0.2
					c-0.2,0.1-0.3,0.1-0.5,0.2c0.1,0.1,0.2,0.2,0.2,0.2C201.9,96.1,202.1,96,202.2,95.9z M107.8,95.8l-0.3-0.3
					c-0.1,0.2-0.2,0.3-0.2,0.5c0,0.1,0.2,0.2,0.2,0.2L107.8,95.8z M98.8,95.7L98.3,96c0.1,0.1,0.2,0.2,0.2,0.2
					c0.2-0.1,0.3-0.1,0.5-0.2L98.8,95.7z M173.4,168.3l-0.3-0.5c-0.1,0.1-0.2,0.2-0.2,0.2c0.1,0.2,0.1,0.3,0.2,0.5L173.4,168.3z"/>
				<path class="st0" d="M238.3,249.3c0-0.2,0-0.4,0-0.6c0.1-0.7,0.2-1.3,0.4-2c1,0.6,1.9,1.5,2.5,2.5c0,1.8-0.2,3.6,1.2,5
					c0.2,0.3,0.3,0.6,0.2,0.9c-0.4,0.2-0.8,0.4-1.3,0.4c-0.4,0-1.1-0.3-1.1-0.6C239.9,252.9,237.8,251.4,238.3,249.3z M240.7,250
					l-0.4-1c-0.2,0.2-0.3,0.4-0.5,0.6c0,0.2,0.1,0.4,0.2,0.6L240.7,250z"/>
				<path class="st0" d="M62.9,241.5c0-0.8,0-1.3,0-1.7c0-0.1,0.3-0.2,0.5-0.3s0.2,0.1,0.2,0.2c0,0.5-0.2,1.1,0.1,1.4
					c0.3,0.4,0.8,0.8,1.3,0.9c0.2,0.1,0.6-0.9,0.9,0c0.1,0.2-0.4,0.6-0.7,0.9c-0.2,0.1-0.4,0.2-0.6,0.3c0.2,0.2,0.4,0.4,0.6,0.5
					c0.9,0.1,0.9,0.7,0.5,1.2c-0.1,0.2-0.9,0.1-1.2-0.1C63.3,244.2,62.6,242.8,62.9,241.5z"/>
				<path class="st0" d="M55.1,251c0,0-0.1-0.1-0.2-0.2c-0.1-0.2-0.1-0.5-0.1-0.7c0.5-1.2,2.2-1.1,2.5-2.6c0-0.1,0.8-0.1,0.9,0.1
					c0.4,0.4,0.7,0.9,0.8,1.5c0.1,1-0.8,0.4-1.2,0.6L55.1,251z"/>
				<path class="st0" d="M60.7,247.6c0,0.1-0.1,0.3-0.1,0.3s-0.4,0.1-0.5,0c-0.6-0.4-1-1-1.5-1.5c-0.2-0.2,0.2-0.8,0.3-1.2
					c0.3,0.1,0.8,0.1,0.9,0.3C60.2,246.2,60.5,246.9,60.7,247.6z"/>
				<path class="st0" d="M120.4,135.4c0,0.4-0.1,0.8,0,1.1c0.3,0.6,1.2,0.9,0.4,1.7c0,0.1-0.8-0.6-1.2-0.9c-0.6-0.4-0.9-1.1-0.7-1.8
					h1.5V135.4z"/>
				<path class="st0" d="M163.9,116.9c0,0.1,0.1,0.3,0,0.4c-0.9,0.6-1.2,1.9-2.5,1.8c-0.1,0-0.2-0.1-0.3-0.2
					c0.6-0.7,1.2-1.4,1.8-2.1c0.1-0.2,0.3-0.4,0.5-0.5c0.1,0,0.4,0.1,0.5,0.2S163.9,116.8,163.9,116.9z"/>
				<path class="st0" d="M118.9,135.4c-1.6,0.1-2.3-1-3-2.2l2.2,0.7L118.9,135.4z"/>
				<path class="st0" d="M196.8,182.4c-0.1,0-0.3,0.1-0.3,0.1c-0.6-0.5-1.1-0.9-1.7-1.4c-0.1-0.1-0.1-0.2,0-0.3s0.4-0.3,0.4-0.3
					c0.6,0.6,1.2,1.1,1.8,1.7L196.8,182.4z"/>
				<path class="st0" d="M156.7,125.5c-0.7,0.4-1.3,0.7-1.9,1c-0.1,0-0.3-0.3-0.4-0.4c0.5-0.4,0.8-1.3,1.8-1
					C156.3,125.1,156.4,125.3,156.7,125.5z"/>
				<path class="st0" d="M60.4,243.9c-0.2-0.3-0.3-0.7-0.5-1c0-0.2,0.2-0.4,0.3-0.6l1,1.2L60.4,243.9z"/>
				<path class="st0" d="M131.1,146.7c-0.3,0.2-0.7,0.3-1,0.5c-0.9,0.1-0.9-0.5-0.8-1.1c0-0.1,0.3-0.4,0.3-0.3
					C130.1,146,130.5,146.3,131.1,146.7z"/>
				<path class="st0" d="M111.3,129.5c-0.2-0.3-0.3-0.5-0.4-0.8c0-0.1,0.3-0.3,0.5-0.5l1,1.3H111.3z"/>
				<path class="st0" d="M113.9,130l-0.4,0.9l-1.2-1c0.1-0.1,0.3-0.3,0.3-0.3C113.1,129.6,113.5,129.8,113.9,130z"/>
				<path class="st0" d="M115.6,133.2l-1-1.3c0.2-0.1,0.4-0.2,0.6-0.3c0.8-0.1,0.8,0.5,0.8,1.1C116,133,115.8,133.1,115.6,133.2z"/>
				<path class="st0" d="M230.2,231.8c-0.3,0.1-0.7,0.1-1,0.1c-0.1,0-0.2-0.3-0.3-0.5c0.3-0.1,0.7-0.2,1-0.2
					C229.9,231.2,230.1,231.5,230.2,231.8z"/>
				<path class="st0" d="M236.3,239.7l-0.4,1c-0.2-0.2-0.4-0.4-0.5-0.6s0.1-0.4,0.2-0.6L236.3,239.7z"/>
				<path class="st0" d="M128.6,145.8l-0.8-0.6c0.3-0.1,0.6-0.2,0.9-0.3c0.2,0,0.3,0.2,0.5,0.4L128.6,145.8z"/>
				<path class="st0" d="M197.2,183.6l0.3-0.3c0.1,0.1,0.2,0.3,0.2,0.5c0,0.1-0.1,0.2-0.2,0.2L197.2,183.6z"/>
				<path class="st0" d="M118.1,195.5c-0.1,0.1-0.2,0.2-0.2,0.2c-0.2-0.1-0.3-0.2-0.4-0.3l0.3-0.3L118.1,195.5z"/>
				<path class="st0" d="M132.1,148.2l-0.3,0.5c-0.1-0.1-0.2-0.2-0.2-0.2c0.1-0.2,0.1-0.3,0.2-0.5L132.1,148.2z"/>
				<path class="st0" d="M93.1,219.1c-0.1,0.1-0.2,0.2-0.2,0.2c-0.2-0.1-0.3-0.2-0.4-0.3l0.3-0.3L93.1,219.1z"/>
				<path class="st0" d="M89.9,219.5c0.1,0.1,0.2,0.2,0.2,0.2c-0.1,0.2-0.2,0.3-0.3,0.4l-0.3-0.3L89.9,219.5z"/>
				<path class="st0" d="M81.7,227.5c0.1,0.2,0.2,0.3,0.2,0.5c0,0.1-0.2,0.2-0.2,0.2c-0.1-0.2-0.2-0.3-0.2-0.5
					C81.5,227.7,81.6,227.6,81.7,227.5z"/>
				<path class="st0" d="M80.5,230.2l-0.3,0.3c-0.1-0.2-0.2-0.3-0.2-0.5c0-0.1,0.2-0.2,0.2-0.2L80.5,230.2z"/>
				<path class="st0" d="M175.6,132.7l-0.3,0.5c-0.1-0.1-0.2-0.2-0.2-0.2c0.1-0.2,0.1-0.3,0.2-0.5L175.6,132.7z"/>
				<path class="st0" d="M79.1,232.4l-0.3,0.3c-0.1-0.2-0.2-0.3-0.2-0.5c0-0.1,0.1-0.2,0.2-0.2L79.1,232.4z"/>
				<path class="st0" d="M72.2,239.4l0.3,0.3c-0.2,0.1-0.3,0.2-0.5,0.2c-0.1,0-0.2-0.1-0.2-0.2L72.2,239.4z"/>
				<path class="st0" d="M157,124.4c0.1,0.1,0.2,0.2,0.2,0.2c-0.1,0.2-0.2,0.3-0.3,0.4l-0.3-0.3L157,124.4z"/>
			</g>
			<path id="V" class="st0" d="M256.8,135.1c0.2,0.4,0.3,0.9,0.2,1.3c-0.1,0.3-0.3,0.5-0.5,0.6c-1,0.2-1.1,0.4-0.8,0.6
				c0.8,0.8,0.8,1.3,0,2.1c-1.1,0.9-1.7,2.3-1.6,3.7c0.1,1-0.6,1.5-1.4,1.8c-0.4,0.2-1.2,0.4-0.5,0.6c1.7,0.4,0.9,0.9,0.6,1.9
				c-0.4,1.5-1.3,3-0.9,4.8c0.1,0.5,0,0.9-0.2,1.4c-2.1,2.2-1.4,5.3-2.7,7.8c-0.6,1.1-0.3,2.6-0.9,3.7c-0.4,0.8-0.7,1.7-0.7,2.7
				c-0.1,1,0.4,2.2-0.4,3.1c-0.6,0.7,0.3,2.4-1.5,2.3c0.1,0.3,0.2,0.5,0.3,0.8c0.9,2.6-0.2,4.6-1.7,6.5c-0.3,0.4-0.7,0.6-1.2,0.7
				c-1.2-0.1-1.5,0.4-1.4,1.5c0.1,0.6,0.1,1.2,0,1.8c-0.2,0.3-0.5,0.4-0.9,0.4c-1.3-0.8-2.5-1.7-3.6-2.7c-1.3-1.2-1.6-3.1-2-4.7
				c-0.4-1.3-0.8-2.6-1.4-3.9c-1.2-3-2.9-5.7-3.3-9c-0.2-1.6-1.5-3-2.1-4.6c-1.3-3.8-2.4-7.6-3.7-11.3c-0.8-2.4-1.1-5-2.3-7.1
				c-2-3.6-2.2-7.7-4-11.3c-0.2-0.6-0.3-1.1-0.3-1.7c-0.1-0.7,0-1.3,0.9-1.1s2.2-0.7,2,1.1c-0.1,0.8,0.1,1.7,0.7,2.3
				c0.4,0.5,0.8,1.1,1.1,1.7c0.8-0.7,0.3-1.2-0.3-1.8c1-1,0.4-2.2,0.7-3.3c0.4-0.7,1-1.2,1.7-1.4c0.5-0.1,1.1,0.1,1.4,0.5
				c0.9,1.6,2,3.1,3.4,4.4c1.6,1.4,1.3,3.7,2.2,5.4c0.2,0.4,0.1,1.1,0.4,1.3c1.6,1.1,1.2,2.1-0.1,3.1c-0.7,0.5-0.2,1.1,0.2,1.5
				c0.2,0.2,0.4,0.3,0.5,0.5c0.2-0.3,0.3-0.5,0.4-0.8c0.1-0.4,0.2-0.9,0.4-1.3c0.1,0.4,0.4,0.9,0.4,1.3c-0.3,1.3,0.4,2.3,0.8,3.4
				c0.1,0.4,0.8,0.9,0.7,1.2c-0.5,2.1,0.9,3.9,0.8,6l-0.6,0.2l0.6,0.5c-0.2,1,0.4,1.9,1.3,2.1c0.1,0,0.3,0,0.4,0
				c0.6,0.1,1.2,0.1,1.2-0.8c0.2-2.9,1.5-5.6,1.5-8.5c0.4-1.2,1.1-2.2,1.9-3.2c0.4-0.6,0.7-1.2,1-1.8c0.6-1.1-1-2.7,1.2-3.6
				c0.9-0.4,0.6-2.6,2.3-2.9c-0.3-2,1.7-2.7,2.4-4.1c0.1-0.3,0.3-0.6,0.4-0.9c0.1,0.3,0.2,0.7,0.3,1c0.1,0.2,0.3,0.4,0.4,0.5
				c0.3,0.1,0.7,0.2,1,0.3v-1.1c0.3-0.2,0.6-0.3,0.9-0.5c0.6-0.4,0.9-0.9-0.2-1c-0.2,0-0.3-0.4-0.4-0.6c0.1,0,0.2-0.1,0.3-0.2
				c1.1-0.1,2.3,0.9,3.4,0c0.1,0,0.4,0.2,0.5,0.4c1.2,1.7,2.7,3.3,2.2,5.6c-0.2,0.9-1,0.5-1.7,0.7c0-0.3,0.2-0.6,0.2-0.8
				s-0.3-0.5-0.4-0.7l-1,1C255.8,134.8,256.3,135,256.8,135.1z M227.9,146.7h0.3c0-0.2-0.1-0.4-0.2-0.6c0,0-0.3,0.1-0.4,0.1
				c0.1,0.1,0.2,0.3,1.4,0.9l-0.4-0.4l-0.3,0.3c0.1,0.1,0.3,0.2,0.4,0.3C228.7,147.4,228.9,147.3,227.9,146.7L227.9,146.7z
				 M231.2,149.3V149c-0.2,0-0.4,0.1-0.6,0.2c0,0,0.1,0.3,0.1,0.4c0.2-0.2,0.4-0.4,0.4-0.7c0.5,0,1,0.2,1.4,0.4l-0.3-0.4l-0.3,0.3
				c0.1,0.1,0.3,0.2,0.4,0.3c0,0,0.1-0.1-0.4-0.7l-0.2-0.6C231.5,148.6,231.3,148.9,231.2,149.3L231.2,149.3z M233.5,150.3l-0.8,0.5
				l1.2,1c0.1-0.2,0.3-0.5,0.2-0.6C234,150.9,233.8,150.6,233.5,150.3L233.5,150.3z M248.1,157.1c-0.3,0.2-0.6,0.3-0.6,0.4
				c0,0.3,0.1,0.7,0.2,1c0.2-0.1,0.4-0.2,0.5-0.3C248.2,157.8,248.2,157.4,248.1,157.1z M233.5,159.1l0.3,0.3
				c0.1-0.2,0.2-0.3,0.2-0.5c0-0.1-0.1-0.2-0.2-0.2L233.5,159.1z M243.4,152c-0.1,0.1-0.2,0.2-0.2,0.2c0.1,0.2,0.1,0.3,0.2,0.5
				c0.1-0.1,0.2-0.2,0.2-0.2C243.6,152.3,243.5,152.1,243.4,152L243.4,152z M235.3,151.2c-0.1,0.1-0.2,0.2-0.2,0.2
				c0.1,0.2,0.1,0.3,0.2,0.5c0.1-0.1,0.2-0.2,0.2-0.2C235.5,151.5,235.4,151.4,235.3,151.2L235.3,151.2z M231.6,151.2
				c-0.1,0.1-0.2,0.2-0.2,0.2c0.1,0.2,0.1,0.3,0.2,0.5c0.1-0.1,0.2-0.2,0.2-0.2C231.8,151.5,231.7,151.4,231.6,151.2L231.6,151.2z
				 M250.1,151.1l0.3-0.3c-0.2-0.1-0.3-0.2-0.5-0.2c-0.1,0-0.2,0.1-0.2,0.2L250.1,151.1z M234.8,149.3l-0.3-0.3
				c-0.1,0.2-0.2,0.3-0.2,0.5c0,0.1,0.1,0.2,0.2,0.2L234.8,149.3z M232.6,147.1l-0.3-0.3c-0.1,0.2-0.2,0.3-0.2,0.5
				c0,0.1,0.1,0.2,0.2,0.2L232.6,147.1z M253.2,142.9l-0.3-0.5c-0.1,0.1-0.2,0.2-0.2,0.2c0.1,0.2,0.1,0.3,0.2,0.5L253.2,142.9z
				 M227.4,142.9l-0.3-0.5c-0.1,0.1-0.2,0.2-0.2,0.2c0,0.2,0.1,0.3,0.2,0.5L227.4,142.9z M256.4,131.6l0.3,0.5
				c0.1-0.1,0.2-0.2,0.2-0.2c-0.1-0.2-0.1-0.3-0.2-0.5L256.4,131.6z"/>
			<g id="J">
				<path class="st0" d="M44.3,130.4c-0.1,0.1-0.2,0.2-0.2,0.3l1-0.2C45.1,130.5,44.4,130.3,44.3,130.4z"/>
				<path class="st0" d="M58.9,184.9c0.4-0.2,1.1-0.6,1.2-0.5c0.5,0.1,0.1,1.6,1.5,0.1s3.9-1.3,5.1-3.1c0.7-1,2.9-1.8,4.4-2.7
					c1.8-1,4.2-1.1,5.4-2.8c2,0.1,3-1.9,4.8-2.1c4-0.6,3.1-3.2,5.3-4.6c0.6-0.3,0.2-1.4,0.2-1.5c-0.6-1.4-1.1-2.2-2.1-2.5
					c-0.1-0.4-0.2-0.9-0.3-1.3c-1.3-4.5-1.9-9.2-1.7-13.9c1-4.4-2.1-8.9-1.5-14.2c0-0.2-0.1-0.3-0.2-0.4c-1.6-0.9-1.1-3.6-1.8-5.3
					c-0.2-0.4-0.3-0.9-0.5-1.4c1.4-0.4,2-1.1,1.8-1.8c-0.4-0.2-0.8-0.6-0.9-1.1c0.2-0.1,0.4-0.2,0.7-0.3c0.2,0.3,0.4,0.6,0.5,0.9
					c0,0.1-0.2,0.3-0.2,0.6c2.2-2.9,2.3-3,1.5-3.4s-1.8-0.4-2-0.8s0.7-1.2,0.5-1.7c-0.3-1-1.3-1.5-3-1.1s-3.2,0.8-4.8,1.2
					c-0.3,0.1-0.7-0.2-1.1-0.2c1.3-1.4-0.2-1.2-1-0.6c-1.1,0.8-2.3,1.3-3.7,1.3c-2.8,0.4-5.6,1-8.4,1.7c-0.6,2.1-3,1.3-4.5,1.7
					c-1.2,0.4-3,0.4-3.7,1c-1.9,1.7-4.5,2.9-5.6,4.6c0.3,0.4,0.2,0.9-0.2,1.2c0,0-0.1,0.1-0.2,0.1c-0.3,0.1-0.8,0-1.3-0.1
					c0.2-0.3,0.4-0.7,0.6-1c-0.7,0.2-1.4,0.4-2.1,0.8c-3,1.8,0.9,1.8-2.8,3.2c-0.6,0.2-0.9,0.9-1.3,1.3c0.7,0.1,1.5,0,2.2-0.1
					c2.7-1.4,4.1,0.6,6.4,0.1c0,0.2,0.1,0.4,0,0.5c-1,1.4,0.8,0.8,1,0.5c1-0.8,1.7-1.8,2.7-2.7c0.4-0.2,0.9-0.4,1.4-0.5
					c0,0.3-0.1,0.6-0.1,0.8c-0.5,1-0.1,1.4,1.4,1c1.8-0.4-1.6,1.7,0.2,1.6s2.1-2.4,4.1-1.4c1.4-0.7,2.8-1.4,4.2-2
					c0.8-0.3,1.7-0.6,2.5-0.9c2.7-0.8,1.3,0,3.9-0.8c0,1.3,2.6,1.9,2.4,3.1c-0.3,1.5-1.3,2.2,0.5,3c0.7,0.3,0.7,4,0,4.4
					c-1.2,0.5-0.6,0.7-0.5,1.9c0.1,2,2.9,0.4,3,1.4s-0.5,2.4-0.6,3.6c-0.1,0.9,0,1.8,0.3,2.7c0.4,0.8,0.4,1.7,0.1,2.5
					c-0.8,2.6-0.8,5.5,0,8.1c0.5,1.3,0.9,2.6,1.2,4c-4.9,1.2-9.6,3.1-13.8,5.8c-1.3,0.8-1.8,1.2-1.6,2c-1,0.2-2,0.4-2.9,0.8
					c-1,2.1-4.5,2.4-5.8,4.1c-2.5,3.1-1.4,5.5-5.2,7.8"/>
			</g>
			<g id="E">
				<path class="st0" d="M126.2,248c-1.4-1-2-2.8-3.2-4.3c-0.4-0.5,0-1.7-0.1-2.5c-0.1-1.1,1.3-2.4-0.6-3.2
					c-0.1-1.9,0.1-3.8,0.3-5.6c0.3-0.9,0.2-1.8-0.3-2.6c-0.4-0.6-0.2-1.6,0.9-0.5c0.2-0.2,0.5-0.4,0.5-0.6c0-1.1,0-2.2,0-3.3
					c-0.1-0.9,0.6-1.7,1.5-1.8c0.1,0,0.2,0,0.3,0c0.5,0,1.1,0.7,1.5,0.6c0.4-0.1,0.9-0.8,1.3-1.2s0.6-0.3,2.9,1.5
					c-0.2-0.1-0.4-0.2-0.5-0.2c-0.3,0-0.6,0.1-0.9,0.2c0,0.2,0.1,0.5,0.1,0.5c0.5,0,0.9-0.1,1.3-0.4c0.7,0,1.3,0.5,1.3,1.5
					c0.2,3.4,0.5,6.9,0.7,10.4c0,0.6,0.1,1.2,0.2,1.8c0.3,1,0.6,2,1,3c-1.5,1.1,0.6,1.8,0.4,2.8c-0.2,1.2-0.2,2.4-0.1,3.6
					c0,1-0.5,1.3-1.4,0.7c-0.2-0.1-0.5-0.2-0.8-0.2c0,0.3-0.1,0.8,0.1,1c0.6,0.7,1.4,1.4,2,2.1c0.2,0.2,0.3,1.4-0.8,0.6
					c-0.1-0.1-0.3-0.1-0.5-0.1c-0.1,1.6-2.4,2.2-1.7,4.1c0.1,0.4-0.3,1-0.4,1.5c-0.3-0.4-0.9-0.7-1-1.1c-0.5-2.6-2.9-3.9-3.9-6.1
					C126.1,249.5,126.1,248.7,126.2,248c0,0-0.3,0.4-0.2,0.5c0.3,0.3,0.6,0.5,1,0.7c0.1-0.3,0.4-0.6,0.4-0.8S126.8,247.9,126.2,248z
					 M124.3,243.1l-0.3-0.5c-0.1,0.1-0.2,0.2-0.2,0.2c0.1,0.2,0.1,0.3,0.2,0.5L124.3,243.1z"/>
				<path class="st0" d="M164.2,237.6c0.2-3-0.4-6.1-1.6-8.8c-0.7-1.6-0.5-2.6,1.1-3.5c0.3-0.1,0.6,0,0.8,0.2
					c0.6,0.8,1.2,1.7,1.9,2.5c0.2,0.4,0.7,0.5,1.1,0.3c0.2-0.1,0.4-0.3,0.4-0.6c0.4-1.3,0.6-2.7,1-4c0.2-0.7,0.6-1.3,1.2-1.6
					c0.7-0.1,1.4,0.1,1.9,0.6c0.3,0.3,0.5,0.8,0.5,1.2c0.1,2,0.7,3.9,1.8,5.6c0.8,1.6,0.8,3.5,0,5.1c-0.3,0.5-0.3,1.1,0.1,1.6
					c0.3,0.5,0.4,1.1,0.3,1.7c-0.1,0.8-0.7,1.5-0.6,2.3s1.4,0.2,1.6,1.5c0.1,0.7,0.7,0.9-0.5,1.2c-0.7,0.2-0.7,2.6,0,2.8
					c1.8,0.5,0.8,1,0.4,1.9c-0.4,1.2-0.1,2.6-0.1,4c0.1,0.9,0.1,1.7-0.1,2.6c-0.3,0.5-0.7,0.9-1.3,1.1c-0.3,0.1-0.9-0.3-1.2-0.6
					c-0.7-0.8-1.2-1.7-1.9-2.5c-0.2-0.3,0.3-1.5-0.8-0.9c-0.6,0.3-1.3,0.9-0.5,1.8c0.1,0.2,0.5,0.4,0.4,0.5
					c-0.1,0.6-0.2,1.1-0.3,1.7c-0.4-0.4-1.2-0.9-1.1-1.2c0.1-1.3-0.2-2.6-1-3.6c-0.7-1.1-0.2-2.8-1.8-3.3c-0.1,0-0.2-0.2-0.2-0.3
					C166.3,243.2,163.2,240.4,164.2,237.6z M165.2,235.4l-0.3,0.3c0.2,0.1,0.3,0.2,0.5,0.2c0.1,0,0.2-0.1,0.2-0.2L165.2,235.4z"/>
				<path class="st0" d="M150.3,225c0.1,0,1.2,0.1,1.4,0.4c0.5,1.5,3.2,1.6,2.3,3.8c-0.4,1,1.1,1.9,0.2,3c1.1,1,0.3,2.3,0.5,3.5
					s0.2,2.3,0.8,2.9c1.1,1,0.2,2.4,1,3.3s-0.3,0.6-0.7,0.8c-0.1,0.1,0,0.5,0,0.8c0.1,1-1.3,2.1,0.1,3c1.1,0.8,1.4,1.6,0.1,2.6
					c-0.6,0.5-0.8,0.9-0.3,1.8c0.8,1,0.6,2.4-0.3,3.2c-0.3,0.3-0.3,0.9-0.6,1.1c-0.8,0.5-1.7,0.7-2.6,0.7c-0.7-0.1-1-1-1.3-1.9
					c-0.7-2.5-1.4-5.1-3.4-7.1c-1-1-0.1-3-1.6-3.9c-0.2-0.1,0.2-1.1,0.4-1.7c-0.8-0.1-1-0.4-1.3-1.3c-1-3-1-6.3,0.1-9.4
					c0.3-1,0.4-2,0.8-3C146.6,225.4,147.3,224.9,150.3,225z M154.8,241l0.3,0.3c0.1-0.2,0.2-0.3,0.2-0.5c0-0.1-0.1-0.2-0.2-0.2
					L154.8,241z"/>
			</g>
			<g id="E-2">
				<path class="st0" d="M126.2,74.8c-1.4-1-2-2.8-3.2-4.3c-0.4-0.5,0-1.7-0.1-2.5c-0.1-1.1,1.3-2.4-0.6-3.2
					c-0.1-1.9,0.1-3.8,0.3-5.6c0.3-0.9,0.2-1.8-0.3-2.6c-0.4-0.6-0.2-1.6,0.9-0.5c0.2-0.2,0.5-0.4,0.5-0.6c0-1.1,0-2.2,0-3.3
					c-0.1-0.9,0.6-1.7,1.5-1.8c0.1,0,0.2,0,0.2,0c0.5,0,1.1,0.7,1.5,0.6c0.4-0.1,0.9-0.8,1.3-1.2s0.6-0.3,2.9,1.5
					c-0.2-0.1-0.4-0.2-0.5-0.2c-0.3,0-0.6,0.1-0.9,0.2c0,0.2,0.1,0.5,0.1,0.5c0.5,0,0.9-0.1,1.3-0.4c0.7,0,1.3,0.5,1.3,1.5
					c0.2,3.5,0.5,6.9,0.7,10.4c0,0.6,0.1,1.2,0.2,1.7c0.3,1,0.6,2,1,3c-1.5,1.1,0.6,1.7,0.4,2.8c-0.2,1.2-0.2,2.4-0.1,3.7
					c0,1-0.5,1.3-1.4,0.7c-0.2-0.1-0.5-0.2-0.8-0.2c0,0.3-0.1,0.8,0.1,1c0.6,0.8,1.4,1.4,2,2.2c0.2,0.2,0.3,1.4-0.8,0.6
					c-0.1-0.1-0.3,0-0.5-0.1c-0.1,1.6-2.4,2.2-1.7,4.1c0.1,0.4-0.3,1-0.4,1.5c-0.3-0.3-0.9-0.7-1-1c-0.5-2.6-2.9-3.9-3.9-6.1
					C126.1,76.3,126.1,75.6,126.2,74.8c0,0-0.3,0.5-0.2,0.5c0.3,0.3,0.6,0.5,1,0.8c0.1-0.3,0.4-0.6,0.4-0.8S126.8,74.7,126.2,74.8z
					 M124.3,69.9l-0.3-0.5c-0.1,0.1-0.2,0.2-0.2,0.2c0.1,0.2,0.1,0.3,0.2,0.5L124.3,69.9z"/>
				<path class="st0" d="M164.2,64.4c0.2-3-0.4-6.1-1.6-8.8c-0.7-1.6-0.5-2.6,1.1-3.5c0.3-0.1,0.5,0,0.8,0.2
					c0.6,0.8,1.2,1.7,1.9,2.5c0.2,0.4,0.7,0.5,1.1,0.3c0.2-0.1,0.4-0.3,0.4-0.6c0.4-1.3,0.6-2.7,1-4c0.2-0.7,0.6-1.2,1.2-1.6
					c0.7-0.1,1.4,0.1,1.9,0.5c0.3,0.3,0.5,0.8,0.5,1.2c0.1,2,0.6,3.9,1.7,5.5c0.8,1.6,0.8,3.5,0,5.1c-0.3,0.5-0.3,1.1,0.1,1.6
					c0.3,0.5,0.4,1.1,0.3,1.7c-0.1,0.8-0.7,1.6-0.6,2.3c0.1,0.7,1.4,0.2,1.6,1.5c0.1,0.7,0.7,0.9-0.5,1.2c-0.7,0.2-0.7,2.6,0,2.8
					c1.8,0.5,0.8,1,0.4,1.9c-0.4,1.2-0.1,2.7-0.1,4c0.1,0.9,0.1,1.7-0.1,2.6c-0.3,0.5-0.7,0.9-1.3,1.1c-0.3,0.1-0.9-0.3-1.2-0.6
					c-0.7-0.8-1.2-1.7-1.9-2.5c-0.2-0.3,0.3-1.5-0.8-0.8c-0.6,0.3-1.3,0.9-0.5,1.8c0.1,0.2,0.5,0.4,0.4,0.5
					c-0.1,0.6-0.2,1.2-0.3,1.7c-0.4-0.4-1.2-0.9-1.1-1.2c0.1-1.3-0.2-2.6-1-3.7c-0.7-1.1-0.2-2.8-1.8-3.3c-0.1,0-0.2-0.2-0.2-0.3
					C166.3,70.1,163.2,67.2,164.2,64.4z M165.2,62.2l-0.3,0.3c0.2,0.1,0.3,0.2,0.5,0.2c0.1,0,0.2-0.2,0.2-0.2L165.2,62.2z"/>
				<path class="st0" d="M150.3,51.8c0.1,0,1.2,0.1,1.4,0.4c0.5,1.5,3.2,1.5,2.3,3.8c-0.4,1,1.1,1.9,0.2,3c1.1,1,0.3,2.3,0.5,3.5
					s0.2,2.4,0.8,2.9c1.1,1,0.2,2.4,1,3.3s-0.3,0.6-0.7,0.8c-0.1,0.1,0,0.5,0,0.8c0.1,1-1.3,2,0.1,3c1.1,0.8,1.4,1.6,0.1,2.6
					c-0.6,0.5-0.8,1-0.3,1.8c0.8,1,0.6,2.4-0.3,3.2c-0.3,0.3-0.3,0.9-0.6,1.1c-0.8,0.5-1.7,0.7-2.6,0.7c-0.7-0.1-1-1-1.3-1.9
					c-0.7-2.5-1.4-5.1-3.4-7.1c-1-1-0.1-3-1.6-3.9c-0.2-0.1,0.2-1.1,0.4-1.7c-0.8-0.1-1-0.4-1.3-1.3c-1-3-1-6.3,0.1-9.4
					c0.3-1,0.4-2,0.8-3C146.6,52.2,147.3,51.8,150.3,51.8z M154.8,67.8L155,68c0.1-0.2,0.2-0.3,0.2-0.5c0-0.1-0.1-0.2-0.2-0.2
					L154.8,67.8z"/>
			</g>
		</g>
	</g>
</g>
</svg>
